<?xml version="1.0" encoding="UTF-8" standalone="no"?><!DOCTYPE svg PUBLIC "-//W3C//DTD SVG 1.1//EN" "http://www.w3.org/Graphics/SVG/1.1/DTD/svg11.dtd"><svg width="100%" height="100%" viewBox="0 0 144 60" version="1.1" xmlns="http://www.w3.org/2000/svg" xmlns:xlink="http://www.w3.org/1999/xlink" xml:space="preserve" xmlns:serif="http://www.serif.com/" style="fill-rule:evenodd;clip-rule:evenodd;stroke-linejoin:round;stroke-miterlimit:2;"><rect id="Artboard2" x="0" y="0" width="144" height="59.76" style="fill:none;"/><g><path d="M54.258,1.731l0.497,0.284l0.361,0.465l0.002,0.004l0.15,0.569l-0.076,0.567l-0.282,0.497l-0.463,0.36l-0.002,0.001l-0.199,0.094l-0.197,0.093l-0.197,0.093l-0.197,0.093l-0.196,0.093l-0.196,0.094l-0.195,0.093l-0.195,0.094l-0.195,0.093l-0.194,0.093l-0.194,0.094l-0.194,0.093l-0.193,0.094l-0.193,0.094l-0.193,0.093l-0.192,0.094l-0.191,0.094l-0.192,0.093l-0.191,0.094l-0.19,0.094l-0.19,0.094l-0.19,0.094l-0.19,0.093l-0.189,0.094l-0.188,0.094l-0.189,0.094l-0.187,0.094l-0.188,0.095l-0.187,0.094l-0.187,0.094l-0.186,0.094l-0.186,0.094l-0.186,0.094l-0.185,0.095l-0.185,0.094l-0.185,0.094l-0.184,0.095l-0.184,0.094l-0.183,0.095l-0.183,0.094l-0.183,0.095l-0.182,0.094l-0.182,0.095l-0.181,0.094l-0.181,0.095l-0.181,0.095l-0.18,0.095l-0.18,0.094l-0.18,0.095l-0.179,0.095l-0.179,0.095l-0.179,0.095l-0.178,0.095l-0.178,0.095l-0.177,0.095l-0.177,0.095l-0.177,0.095l-0.176,0.095l-0.176,0.095l-0.175,0.095l-0.175,0.095l-0.175,0.096l-0.174,0.095l-0.174,0.095l-0.174,0.095l-0.173,0.096l-0.173,0.095l-0.173,0.096l-0.172,0.095l-0.171,0.096l-0.172,0.095l-0.171,0.096l-0.17,0.095l-0.171,0.096l-0.17,0.096l-0.169,0.096l-0.169,0.095l-0.169,0.096l-0.168,0.096l-0.168,0.096l-0.168,0.096l-0.167,0.096l-0.167,0.096l-0.167,0.095l-0.166,0.097l-0.166,0.096l-0.165,0.096l-0.165,0.096l-0.165,0.096l-0.164,0.096l-0.164,0.096l-0.164,0.097l-0.163,0.096l-0.163,0.096l-0.162,0.097l-0.162,0.096l-0.162,0.096l-0.161,0.097l-0.161,0.096l-0.161,0.097l-0.16,0.097l-0.16,0.096l-0.159,0.097l-0.159,0.096l-0.159,0.097l-0.158,0.097l-0.158,0.097l-0.158,0.096l-0.157,0.097l-0.157,0.097l-0.157,0.097l-0.156,0.097l-0.155,0.097l-0.156,0.097l-0.155,0.097l-0.155,0.097l-0.154,0.097l-0.154,0.097l-0.153,0.097l-0.153,0.098l-0.153,0.097l-0.153,0.097l-0.152,0.097l-0.152,0.098l-0.151,0.097l-0.151,0.098l-0.15,0.097l-0.151,0.098l-0.15,0.097l-0.149,0.098l-0.149,0.097l-0.149,0.098l-0.148,0.097l-0.148,0.098l-0.148,0.098l-0.147,0.098l-0.147,0.097l-0.147,0.098l-0.146,0.098l-0.146,0.098l-0.145,0.098l-0.145,0.098l-0.145,0.098l-0.145,0.098l-0.143,0.098l-0.144,0.098l-0.143,0.098l-0.143,0.098l-0.143,0.098l-0.142,0.098l-0.142,0.099l-0.141,0.098l-0.141,0.098l-0.141,0.099l-0.14,0.098l-0.14,0.098l-0.14,0.099l-0.139,0.098l-0.139,0.099l-0.139,0.098l-0.138,0.099l-0.137,0.099l-0.138,0.098l-0.137,0.099l-0.137,0.099l-0.136,0.098l-0.136,0.099l-0.136,0.099l-0.135,0.099l-0.135,0.099l-0.134,0.099l-0.134,0.099l-0.134,0.098l-0.133,0.1l-0.134,0.099l-0.132,0.099l-0.133,0.099l-0.132,0.099l-0.131,0.099l-0.131,0.099l-0.131,0.1l-0.131,0.099l-0.13,0.099l-0.13,0.099l-0.129,0.1l-0.129,0.099l-0.129,0.1l-0.128,0.099l-0.128,0.1l-0.128,0.099l-0.127,0.1l-0.127,0.099l-0.127,0.1l-0.126,0.1l-0.125,0.099l-0.126,0.1l-0.125,0.1l-0.125,0.1l-0.124,0.1l-0.124,0.099l-0.124,0.1l-0.123,0.1l-0.123,0.1l-0.123,0.1l-0.122,0.1l-0.122,0.1l-0.121,0.101l-0.121,0.1l-0.121,0.1l-0.12,0.1l-0.12,0.1l-0.12,0.101l-0.119,0.1l-0.119,0.1l-0.119,0.101l-0.118,0.1l-0.118,0.1l-0.118,0.101l-0.117,0.1l-0.117,0.101l-0.116,0.101l-0.116,0.1l-0.116,0.101l-0.115,0.101l-0.115,0.1l-0.115,0.101l-0.114,0.101l-0.114,0.101l-0.114,0.1l-0.113,0.101l-0.113,0.101l-0.113,0.101l-0.112,0.101l-0.112,0.101l-0.111,0.101l-0.111,0.101l-0.111,0.101l-0.11,0.101l-0.11,0.102l-0.11,0.101l-0.109,0.101l-0.109,0.101l-0.109,0.102l-0.108,0.101l-0.108,0.101l-0.107,0.102l-0.108,0.101l-0.106,0.102l-0.107,0.101l-0.106,0.102l-0.106,0.101l-0.105,0.102l-0.105,0.102l-0.105,0.101l-0.104,0.102l-0.104,0.102l-0.104,0.101l-0.103,0.102l-0.103,0.102l-0.103,0.102l-0.102,0.102l-0.102,0.102l-0.101,0.102l-0.101,0.102l-0.101,0.102l-0.1,0.102l-0.101,0.102l-0.099,0.102l-0.1,0.102l-0.099,0.103l-0.098,0.102l-0.099,0.102l-0.098,0.102l-0.097,0.103l-0.097,0.102l-0.097,0.102l-0.097,0.103l-0.096,0.102l-0.096,0.103l-0.095,0.102l-0.096,0.103l-0.094,0.103l-0.095,0.102l-0.094,0.103l-0.094,0.103l-0.093,0.102l-0.093,0.103l-0.093,0.103l-0.092,0.103l-0.092,0.103l-0.092,0.103l-0.091,0.103l-0.091,0.103l-0.09,0.103l-0.091,0.103l-0.09,0.103l-0.089,0.103l-0.089,0.103l-0.089,0.103l-0.089,0.103l-0.088,0.104l-0.087,0.103l-0.088,0.103l-0.087,0.104l-0.087,0.103l-0.086,0.103l-0.086,0.104l-0.086,0.103l-0.085,0.104l-0.085,0.103l-0.085,0.104l-0.084,0.104l-0.084,0.103l-0.083,0.104l-0.084,0.104l-0.083,0.103l-0.082,0.104l-0.082,0.104l-0.082,0.104l-0.082,0.104l-0.081,0.104l-0.081,0.104l-0.08,0.104l-0.08,0.104l-0.08,0.104l-0.079,0.104l-0.079,0.104l-0.079,0.104l-0.078,0.104l-0.078,0.105l-0.078,0.104l-0.077,0.104l-0.077,0.105l-0.077,0.104l-0.076,0.104l-0.076,0.105l-0.076,0.104l-0.075,0.105l-0.075,0.104l-0.075,0.105l-0.074,0.105l-0.074,0.104l-0.073,0.105l-0.073,0.105l-0.073,0.104l-0.073,0.105l-0.072,0.105l-0.071,0.105l-0.072,0.105l-0.071,0.105l-0.071,0.105l-0.07,0.105l-0.07,0.105l-0.07,0.105l-0.069,0.105l-0.069,0.105l-0.069,0.105l-0.068,0.105l-0.068,0.106l-0.068,0.105l-0.067,0.105l-0.067,0.105l-0.067,0.106l-0.066,0.105l-0.066,0.106l-0.066,0.105l-0.065,0.106l-0.065,0.105l-0.064,0.106l-0.065,0.106l-0.063,0.105l-0.064,0.106l-0.063,0.106l-0.063,0.105l-0.063,0.106l-0.062,0.106l-0.061,0.106l-0.062,0.106l-0.061,0.106l-0.061,0.106l-0.06,0.106l-0.06,0.106l-0.06,0.106l-0.06,0.106l-0.059,0.106l-0.058,0.106l-0.059,0.107l-0.058,0.106l-0.058,0.106l-0.057,0.106l-0.057,0.107l-0.057,0.106l-0.056,0.107l-0.056,0.106l-0.056,0.107l-0.055,0.106l-0.055,0.107l-0.055,0.106l-0.054,0.107l-0.054,0.107l-0.053,0.106l-0.054,0.107l-0.053,0.107l-0.052,0.107l-0.053,0.107l-0.051,0.107l-0.052,0.107l-0.051,0.107l-0.051,0.107l-0.051,0.107l-0.05,0.107l-0.05,0.107l-0.049,0.107l-0.05,0.107l-0.048,0.107l-0.049,0.108l-0.048,0.107l-0.048,0.107l-0.047,0.108l-0.048,0.107l-0.046,0.108l-0.047,0.107l-0.046,0.108l-0.046,0.107l-0.045,0.108l-0.045,0.107l-0.045,0.108l-0.045,0.108l-0.044,0.108l-0.044,0.107l-0.043,0.108l-0.043,0.108l-0.043,0.108l-0.042,0.108l-0.042,0.108l-0.042,0.108l-0.042,0.108l-0.041,0.108l-0.04,0.108l-0.041,0.108l-0.04,0.108l-0.04,0.109l-0.039,0.108l-0.039,0.108l-0.039,0.108l-0.038,0.109l-0.038,0.108l-0.038,0.109l-0.037,0.108l-0.037,0.109l-0.037,0.108l-0.036,0.109l-0.036,0.108l-0.036,0.109l-0.035,0.109l-0.035,0.109l-0.035,0.108l-0.034,0.109l-0.034,0.109l-0.034,0.109l-0.033,0.109l-0.033,0.109l-0.033,0.109l-0.032,0.109l-0.032,0.109l-0.032,0.109l-0.031,0.109l-0.031,0.109l-0.031,0.11l-0.03,0.109l-0.03,0.109l-0.03,0.109l-0.029,0.11l-0.029,0.109l-0.029,0.11l-0.028,0.109l-0.028,0.11l-0.028,0.109l-0.027,0.11l-0.027,0.109l-0.026,0.11l-0.027,0.11l-0.026,0.11l-0.025,0.109l-0.026,0.11l-0.024,0.11l-0.025,0.11l-0.024,0.11l-0.024,0.11l-0.024,0.11l-0.023,0.11l-0.023,0.11l-0.023,0.11l-0.022,0.11l-0.022,0.111l-0.022,0.11l-0.021,0.11l-0.021,0.11l-0.02,0.111l-0.021,0.11l-0.02,0.111l-0.019,0.11l-0.019,0.111l-0.019,0.11l-0.019,0.111l-0.018,0.11l-0.018,0.111l-0.018,0.111l-0.017,0.11l-0.017,0.111l-0.017,0.111l-0.016,0.111l0.012,-0.112l0.013,-0.111l0.012,-0.111l0.013,-0.112l0.014,-0.111l0.013,-0.111l0.015,-0.112l0.014,-0.111l0.015,-0.111l0.015,-0.112l0.015,-0.111l0.016,-0.111l0.016,-0.111l0.016,-0.112l0.017,-0.111l0.017,-0.111l0.018,-0.111l0.017,-0.111l0.018,-0.112l0.019,-0.111l0.019,-0.111l0.019,-0.111l0.019,-0.111l0.02,-0.111l0.02,-0.111l0.021,-0.111l0.02,-0.111l0.021,-0.111l0.022,-0.111l0.022,-0.111l0.022,-0.112l0.022,-0.111l0.023,-0.11l0.023,-0.111l0.024,-0.111l0.024,-0.111l0.024,-0.111l0.025,-0.111l0.024,-0.111l0.026,-0.111l0.025,-0.111l0.026,-0.111l0.026,-0.111l0.027,-0.111l0.027,-0.11l0.027,-0.111l0.028,-0.111l0.028,-0.111l0.028,-0.111l0.029,-0.11l0.029,-0.111l0.029,-0.111l0.03,-0.111l0.03,-0.11l0.03,-0.111l0.031,-0.111l0.031,-0.11l0.031,-0.111l0.032,-0.111l0.032,-0.11l0.032,-0.111l0.033,-0.11l0.033,-0.111l0.034,-0.111l0.033,-0.11l0.034,-0.111l0.035,-0.11l0.035,-0.111l0.035,-0.11l0.035,-0.111l0.036,-0.11l0.036,-0.111l0.037,-0.11l0.037,-0.111l0.037,-0.11l0.038,-0.111l0.038,-0.11l0.038,-0.11l0.038,-0.111l0.039,-0.11l0.04,-0.11l0.039,-0.111l0.04,-0.11l0.041,-0.11l0.04,-0.111l0.041,-0.11l0.042,-0.11l0.041,-0.11l0.042,-0.111l0.043,-0.11l0.043,-0.11l0.043,-0.11l0.043,-0.11l0.044,-0.111l0.044,-0.11l0.045,-0.11l0.044,-0.11l0.046,-0.11l0.045,-0.11l0.046,-0.11l0.046,-0.11l0.047,-0.11l0.047,-0.11l0.047,-0.11l0.048,-0.11l0.048,-0.11l0.048,-0.11l0.048,-0.11l0.05,-0.11l0.049,-0.11l0.05,-0.11l0.05,-0.11l0.05,-0.11l0.051,-0.11l0.051,-0.109l0.051,-0.11l0.052,-0.11l0.052,-0.11l0.053,-0.11l0.053,-0.109l0.053,-0.11l0.053,-0.11l0.054,-0.109l0.055,-0.11l0.054,-0.11l0.055,-0.11l0.055,-0.109l0.056,-0.11l0.056,-0.109l0.056,-0.11l0.057,-0.11l0.057,-0.109l0.058,-0.11l0.057,-0.109l0.058,-0.11l0.059,-0.109l0.059,-0.11l0.059,-0.109l0.059,-0.11l0.06,-0.109l0.06,-0.11l0.061,-0.109l0.061,-0.109l0.061,-0.11l0.062,-0.109l0.062,-0.109l0.062,-0.11l0.063,-0.109l0.063,-0.109l0.063,-0.11l0.064,-0.109l0.064,-0.109l0.064,-0.109l0.065,-0.11l0.065,-0.109l0.066,-0.109l0.066,-0.109l0.066,-0.109l0.067,-0.109l0.066,-0.109l0.068,-0.109l0.067,-0.11l0.068,-0.109l0.069,-0.109l0.068,-0.109l0.069,-0.109l0.07,-0.109l0.07,-0.109l0.07,-0.108l0.07,-0.109l0.071,-0.109l0.071,-0.109l0.072,-0.109l0.071,-0.109l0.073,-0.109l0.072,-0.109l0.073,-0.108l0.073,-0.109l0.074,-0.109l0.074,-0.109l0.074,-0.108l0.075,-0.109l0.075,-0.109l0.076,-0.108l0.075,-0.109l0.077,-0.109l0.076,-0.108l0.077,-0.109l0.077,-0.109l0.078,-0.108l0.078,-0.109l0.078,-0.108l0.078,-0.109l0.079,-0.108l0.08,-0.109l0.079,-0.108l0.081,-0.109l0.08,-0.108l0.081,-0.108l0.081,-0.109l0.081,-0.108l0.082,-0.109l0.082,-0.108l0.083,-0.108l0.083,-0.108l0.083,-0.109l0.084,-0.108l0.084,-0.108l0.084,-0.108l0.085,-0.109l0.085,-0.108l0.085,-0.108l0.086,-0.108l0.086,-0.108l0.087,-0.108l0.086,-0.108l0.088,-0.108l0.087,-0.108l0.088,-0.108l0.088,-0.108l0.089,-0.108l0.089,-0.108l0.089,-0.108l0.09,-0.108l0.09,-0.108l0.09,-0.108l0.091,-0.108l0.091,-0.108l0.092,-0.108l0.092,-0.107l0.092,-0.108l0.093,-0.108l0.093,-0.108l0.093,-0.108l0.093,-0.107l0.094,-0.108l0.095,-0.108l0.095,-0.107l0.095,-0.108l0.095,-0.108l0.096,-0.107l0.096,-0.108l0.097,-0.107l0.097,-0.108l0.097,-0.107l0.098,-0.108l0.097,-0.107l0.099,-0.108l0.099,-0.107l0.099,-0.108l0.099,-0.107l0.1,-0.107l0.1,-0.108l0.1,-0.107l0.101,-0.107l0.102,-0.108l0.101,-0.107l0.102,-0.107l0.102,-0.107l0.103,-0.108l0.103,-0.107l0.104,-0.107l0.103,-0.107l0.104,-0.107l0.105,-0.108l0.105,-0.107l0.105,-0.107l0.106,-0.107l0.105,-0.107l0.107,-0.107l0.106,-0.107l0.107,-0.107l0.108,-0.107l0.108,-0.107l0.108,-0.107l0.108,-0.106l0.109,-0.107l0.109,-0.107l0.11,-0.107l0.11,-0.107l0.11,-0.107l0.111,-0.106l0.111,-0.107l0.111,-0.107l0.112,-0.107l0.112,-0.106l0.112,-0.107l0.113,-0.107l0.113,-0.106l0.114,-0.107l0.114,-0.106l0.114,-0.107l0.115,-0.107l0.115,-0.106l0.115,-0.107l0.116,-0.106l0.116,-0.107l0.117,-0.106l0.116,-0.106l0.118,-0.107l0.117,-0.106l0.118,-0.107l0.118,-0.106l0.119,-0.106l0.119,-0.107l0.12,-0.106l0.119,-0.106l0.12,-0.106l0.121,-0.107l0.121,-0.106l0.121,-0.106l0.122,-0.106l0.122,-0.106l0.122,-0.106l0.123,-0.106l0.123,-0.107l0.123,-0.106l0.124,-0.106l0.124,-0.106l0.125,-0.106l0.124,-0.106l0.126,-0.105l0.125,-0.106l0.126,-0.106l0.127,-0.106l0.126,-0.106l0.127,-0.106l0.128,-0.106l0.128,-0.106l0.128,-0.105l0.128,-0.106l0.129,-0.106l0.13,-0.106l0.129,-0.105l0.13,-0.106l0.131,-0.106l0.131,-0.105l0.131,-0.106l0.131,-0.105l0.132,-0.106l0.132,-0.105l0.133,-0.106l0.133,-0.105l0.133,-0.106l0.134,-0.105l0.134,-0.106l0.134,-0.105l0.135,-0.106l0.135,-0.105l0.136,-0.105l0.136,-0.106l0.136,-0.105l0.137,-0.105l0.137,-0.106l0.137,-0.105l0.138,-0.105l0.138,-0.105l0.139,-0.105l0.139,-0.106l0.139,-0.105l0.139,-0.105l0.14,-0.105l0.141,-0.105l0.14,-0.105l0.142,-0.105l0.141,-0.105l0.142,-0.105l0.142,-0.105l0.143,-0.105l0.143,-0.105l0.143,-0.105l0.144,-0.105l0.144,-0.105l0.144,-0.104l0.145,-0.105l0.145,-0.105l0.146,-0.105l0.145,-0.105l0.147,-0.104l0.146,-0.105l0.147,-0.105l0.148,-0.104l0.148,-0.105l0.148,-0.105l0.148,-0.104l0.149,-0.105l0.149,-0.104l0.15,-0.105l0.15,-0.105l0.15,-0.104l0.151,-0.104l0.151,-0.105l0.152,-0.104l0.152,-0.105l0.152,-0.104l0.152,-0.105l0.153,-0.104l0.154,-0.104l0.154,-0.104l0.154,-0.105l0.154,-0.104l0.155,-0.104l0.155,-0.104l0.156,-0.105l0.156,-0.104l0.156,-0.104l0.157,-0.104l0.157,-0.104l0.157,-0.104l0.158,-0.104l0.158,-0.104l0.159,-0.104l0.159,-0.104l0.159,-0.104l0.16,-0.104l0.16,-0.104l0.161,-0.104l0.16,-0.104l0.162,-0.104l0.161,-0.104l0.162,-0.104l0.162,-0.103l0.163,-0.104l0.163,-0.104l0.164,-0.104l0.163,-0.103l0.165,-0.104l0.164,-0.104l0.165,-0.103l0.166,-0.104l0.165,-0.104l0.166,-0.103l0.167,-0.104l0.167,-0.103l0.167,-0.104l0.167,-0.103l0.168,-0.104l0.169,-0.103l0.168,-0.104l0.17,-0.103l0.169,-0.104l0.17,-0.103l0.17,-0.103l0.171,-0.104l0.171,-0.103l0.171,-0.103l0.172,-0.103l0.172,-0.104l0.172,-0.103l0.173,-0.103l0.173,-0.103l0.174,-0.103l0.174,-0.103l0.174,-0.104l0.175,-0.103l0.175,-0.103l0.176,-0.103l0.176,-0.103l0.176,-0.103l0.177,-0.103l0.177,-0.103l0.177,-0.103l0.178,-0.103l0.178,-0.102l0.178,-0.103l0.179,-0.103l0.18,-0.103l0.179,-0.103l0.18,-0.102l0.181,-0.103l0.181,-0.103l0.181,-0.103l0.181,-0.102l0.182,-0.103l0.183,-0.103l0.182,-0.102l0.183,-0.103l0.184,-0.102l0.184,-0.103l0.184,-0.103l0.184,-0.102l0.185,-0.103l0.186,-0.102l0.186,-0.102l0.186,-0.103l0.186,-0.102l0.187,-0.103l0.187,-0.102l0.188,-0.102l0.188,-0.103l0.188,-0.102l0.189,-0.102l0.189,-0.102l0.19,-0.103l0.19,-0.102l0.19,-0.102l0.191,-0.102l0.191,-0.102l0.191,-0.102l0.192,-0.103l0.192,-0.102l0.193,-0.102l0.193,-0.102l0.193,-0.102l0.194,-0.102l0.194,-0.102l0.195,-0.102l0.195,-0.101l0.195,-0.102l0.196,-0.102l0.196,-0.102l0.195,-0.102l0.003,-0.001l0.567,-0.149l0.566,0.077Z"/><path d="M54.443,1.803l0.002,0.001l0.196,0.102l0.196,0.102l0.195,0.102l0.196,0.102l0.194,0.101l0.195,0.102l0.194,0.102l0.194,0.102l0.193,0.102l0.193,0.102l0.193,0.102l0.192,0.102l0.192,0.103l0.191,0.102l0.191,0.102l0.191,0.102l0.19,0.102l0.19,0.102l0.19,0.103l0.189,0.102l0.189,0.102l0.188,0.102l0.188,0.103l0.188,0.102l0.187,0.102l0.187,0.103l0.187,0.102l0.186,0.103l0.185,0.102l0.186,0.102l0.185,0.103l0.184,0.102l0.185,0.103l0.183,0.103l0.184,0.102l0.183,0.103l0.183,0.102l0.182,0.103l0.182,0.103l0.181,0.102l0.182,0.103l0.18,0.103l0.181,0.103l0.18,0.102l0.18,0.103l0.179,0.103l0.179,0.103l0.178,0.103l0.178,0.102l0.178,0.103l0.178,0.103l0.177,0.103l0.176,0.103l0.177,0.103l0.175,0.103l0.176,0.103l0.175,0.103l0.175,0.103l0.174,0.104l0.174,0.103l0.174,0.103l0.173,0.103l0.173,0.103l0.172,0.103l0.172,0.104l0.172,0.103l0.172,0.103l0.171,0.103l0.17,0.104l0.17,0.103l0.17,0.103l0.17,0.104l0.169,0.103l0.168,0.104l0.169,0.103l0.168,0.104l0.167,0.103l0.168,0.104l0.166,0.103l0.167,0.104l0.166,0.103l0.166,0.104l0.165,0.104l0.165,0.103l0.164,0.104l0.165,0.104l0.164,0.103l0.163,0.104l0.163,0.104l0.163,0.104l0.162,0.103l0.162,0.104l0.162,0.104l0.161,0.104l0.161,0.104l0.16,0.104l0.16,0.104l0.16,0.104l0.159,0.104l0.159,0.104l0.159,0.104l0.158,0.104l0.158,0.104l0.157,0.104l0.157,0.104l0.157,0.104l0.156,0.104l0.156,0.104l0.156,0.105l0.155,0.104l0.155,0.104l0.155,0.104l0.154,0.105l0.153,0.104l0.154,0.104l0.153,0.104l0.152,0.105l0.153,0.104l0.151,0.105l0.152,0.104l0.151,0.105l0.151,0.104l0.15,0.104l0.15,0.105l0.15,0.105l0.149,0.104l0.149,0.105l0.148,0.104l0.149,0.105l0.147,0.105l0.148,0.104l0.147,0.105l0.146,0.105l0.147,0.104l0.146,0.105l0.145,0.105l0.145,0.105l0.145,0.105l0.145,0.104l0.144,0.105l0.143,0.105l0.144,0.105l0.143,0.105l0.142,0.105l0.142,0.105l0.142,0.105l0.142,0.105l0.141,0.105l0.14,0.105l0.141,0.105l0.14,0.105l0.139,0.105l0.14,0.105l0.139,0.106l0.138,0.105l0.138,0.105l0.138,0.105l0.137,0.105l0.137,0.106l0.137,0.105l0.136,0.105l0.136,0.106l0.136,0.105l0.135,0.105l0.135,0.106l0.134,0.105l0.134,0.106l0.134,0.105l0.133,0.106l0.133,0.105l0.133,0.106l0.132,0.105l0.132,0.106l0.131,0.105l0.132,0.106l0.13,0.105l0.131,0.106l0.13,0.106l0.129,0.105l0.13,0.106l0.129,0.106l0.128,0.106l0.128,0.105l0.128,0.106l0.128,0.106l0.127,0.106l0.127,0.106l0.126,0.106l0.126,0.106l0.125,0.106l0.126,0.105l0.125,0.106l0.124,0.106l0.124,0.106l0.124,0.106l0.124,0.106l0.123,0.107l0.122,0.106l0.123,0.106l0.122,0.106l0.121,0.106l0.121,0.106l0.121,0.106l0.121,0.107l0.12,0.106l0.12,0.106l0.119,0.106l0.119,0.107l0.119,0.106l0.118,0.106l0.118,0.107l0.118,0.106l0.117,0.107l0.117,0.106l0.116,0.106l0.116,0.107l0.116,0.106l0.115,0.107l0.115,0.106l0.115,0.107l0.114,0.107l0.114,0.106l0.114,0.107l0.113,0.106l0.113,0.107l0.112,0.107l0.112,0.106l0.112,0.107l0.111,0.107l0.111,0.107l0.111,0.106l0.11,0.107l0.11,0.107l0.11,0.107l0.109,0.107l0.109,0.107l0.108,0.106l0.109,0.107l0.107,0.107l0.108,0.107l0.107,0.107l0.106,0.107l0.107,0.107l0.106,0.107l0.105,0.107l0.105,0.107l0.105,0.107l0.105,0.108l0.104,0.107l0.104,0.107l0.103,0.107l0.103,0.107l0.103,0.108l0.102,0.107l0.102,0.107l0.102,0.107l0.101,0.108l0.101,0.107l0.1,0.107l0.1,0.108l0.1,0.107l0.1,0.107l0.099,0.108l0.098,0.107l0.099,0.108l0.098,0.107l0.097,0.108l0.098,0.107l0.096,0.108l0.097,0.107l0.096,0.108l0.096,0.107l0.095,0.108l0.096,0.108l0.094,0.107l0.095,0.108l0.094,0.108l0.093,0.107l0.094,0.108l0.093,0.108l0.092,0.108l0.092,0.108l0.092,0.107l0.092,0.108l0.091,0.108l0.091,0.108l0.09,0.108l0.09,0.108l0.09,0.108l0.089,0.108l0.089,0.108l0.089,0.108l0.088,0.108l0.088,0.108l0.088,0.108l0.087,0.108l0.087,0.108l0.086,0.108l0.086,0.108l0.086,0.108l0.085,0.108l0.085,0.108l0.085,0.109l0.084,0.108l0.084,0.108l0.084,0.108l0.083,0.109l0.083,0.108l0.083,0.108l0.082,0.108l0.082,0.109l0.081,0.108l0.081,0.109l0.081,0.108l0.081,0.108l0.08,0.109l0.079,0.108l0.08,0.109l0.079,0.108l0.078,0.109l0.079,0.108l0.077,0.109l0.078,0.108l0.077,0.109l0.077,0.109l0.077,0.108l0.076,0.109l0.075,0.109l0.076,0.108l0.075,0.109l0.075,0.109l0.074,0.108l0.074,0.109l0.074,0.109l0.073,0.109l0.073,0.108l0.072,0.109l0.073,0.109l0.072,0.109l0.071,0.109l0.071,0.109l0.071,0.109l0.071,0.109l0.07,0.108l0.069,0.109l0.07,0.109l0.069,0.109l0.068,0.109l0.069,0.109l0.068,0.109l0.067,0.11l0.068,0.109l0.067,0.109l0.066,0.109l0.066,0.109l0.066,0.109l0.066,0.109l0.065,0.109l0.065,0.11l0.064,0.109l0.064,0.109l0.064,0.109l0.063,0.11l0.063,0.109l0.063,0.109l0.062,0.11l0.062,0.109l0.062,0.109l0.061,0.11l0.061,0.109l0.061,0.109l0.06,0.11l0.06,0.109l0.059,0.11l0.059,0.109l0.059,0.11l0.059,0.109l0.058,0.11l0.058,0.109l0.057,0.11l0.057,0.109l0.057,0.11l0.056,0.11l0.056,0.109l0.056,0.11l0.055,0.109l0.055,0.11l0.055,0.11l0.054,0.11l0.054,0.109l0.053,0.11l0.054,0.11l0.052,0.109l0.053,0.11l0.052,0.11l0.052,0.11l0.051,0.11l0.051,0.109l0.051,0.11l0.051,0.11l0.05,0.11l0.049,0.11l0.05,0.11l0.049,0.11l0.048,0.11l0.049,0.11l0.048,0.11l0.047,0.11l0.047,0.11l0.047,0.11l0.047,0.11l0.046,0.11l0.046,0.11l0.046,0.11l0.045,0.11l0.045,0.11l0.044,0.11l0.044,0.11l0.044,0.111l0.043,0.11l0.044,0.11l0.042,0.11l0.043,0.11l0.042,0.111l0.042,0.11l0.041,0.11l0.041,0.11l0.041,0.111l0.04,0.11l0.04,0.11l0.04,0.111l0.039,0.11l0.039,0.11l0.038,0.111l0.039,0.11l0.038,0.11l0.037,0.111l0.037,0.11l0.037,0.111l0.037,0.11l0.036,0.111l0.036,0.11l0.035,0.111l0.035,0.11l0.035,0.111l0.035,0.11l0.034,0.111l0.034,0.11l0.033,0.111l0.033,0.111l0.033,0.11l0.032,0.111l0.032,0.11l0.032,0.111l0.031,0.111l0.031,0.11l0.031,0.111l0.031,0.111l0.03,0.11l0.029,0.111l0.029,0.111l0.029,0.111l0.029,0.11l0.028,0.111l0.028,0.111l0.028,0.111l0.027,0.111l0.027,0.11l0.027,0.111l0.026,0.111l0.026,0.111l0.025,0.111l0.026,0.111l0.025,0.111l0.024,0.111l0.024,0.111l0.024,0.111l0.024,0.111l0.023,0.111l0.023,0.11l0.022,0.111l0.022,0.112l0.022,0.111l0.022,0.111l0.021,0.111l0.021,0.111l0.02,0.111l0.02,0.111l0.02,0.111l0.019,0.111l0.02,0.111l0.018,0.111l0.019,0.111l0.018,0.112l0.018,0.111l0.017,0.111l0.017,0.111l0.017,0.111l0.016,0.112l0.016,0.111l0.016,0.111l0.015,0.111l0.016,0.112l0.014,0.111l0.015,0.111l0.014,0.112l0.013,0.111l0.014,0.111l0.013,0.112l0.013,0.111l0.012,0.111l0.012,0.112l-0.016,-0.111l-0.017,-0.111l-0.017,-0.111l-0.017,-0.11l-0.018,-0.111l-0.018,-0.111l-0.018,-0.11l-0.019,-0.111l-0.018,-0.11l-0.02,-0.111l-0.019,-0.11l-0.02,-0.111l-0.021,-0.11l-0.02,-0.111l-0.021,-0.11l-0.021,-0.11l-0.022,-0.11l-0.022,-0.111l-0.022,-0.11l-0.023,-0.11l-0.023,-0.11l-0.023,-0.11l-0.024,-0.11l-0.024,-0.11l-0.024,-0.11l-0.024,-0.11l-0.025,-0.11l-0.026,-0.11l-0.025,-0.109l-0.026,-0.11l-0.026,-0.11l-0.027,-0.11l-0.027,-0.109l-0.027,-0.11l-0.028,-0.109l-0.028,-0.11l-0.028,-0.109l-0.029,-0.11l-0.029,-0.109l-0.029,-0.11l-0.03,-0.109l-0.03,-0.109l-0.03,-0.109l-0.031,-0.11l-0.031,-0.109l-0.031,-0.109l-0.032,-0.109l-0.032,-0.109l-0.032,-0.109l-0.033,-0.109l-0.033,-0.109l-0.033,-0.109l-0.034,-0.109l-0.034,-0.109l-0.034,-0.109l-0.035,-0.108l-0.035,-0.109l-0.035,-0.109l-0.036,-0.109l-0.036,-0.108l-0.036,-0.109l-0.037,-0.108l-0.037,-0.109l-0.037,-0.108l-0.038,-0.109l-0.038,-0.108l-0.038,-0.109l-0.039,-0.108l-0.039,-0.108l-0.039,-0.108l-0.04,-0.109l-0.04,-0.108l-0.04,-0.108l-0.041,-0.108l-0.041,-0.108l-0.042,-0.108l-0.041,-0.108l-0.043,-0.108l-0.042,-0.108l-0.043,-0.108l-0.043,-0.108l-0.043,-0.108l-0.044,-0.107l-0.044,-0.108l-0.045,-0.108l-0.044,-0.108l-0.046,-0.107l-0.045,-0.108l-0.046,-0.107l-0.046,-0.108l-0.046,-0.107l-0.047,-0.108l-0.047,-0.107l-0.048,-0.108l-0.048,-0.107l-0.048,-0.107l-0.048,-0.108l-0.049,-0.107l-0.05,-0.107l-0.049,-0.107l-0.05,-0.107l-0.05,-0.107l-0.051,-0.107l-0.051,-0.107l-0.051,-0.107l-0.051,-0.107l-0.052,-0.107l-0.053,-0.107l-0.052,-0.107l-0.053,-0.107l-0.053,-0.107l-0.054,-0.106l-0.054,-0.107l-0.054,-0.107l-0.055,-0.106l-0.055,-0.107l-0.055,-0.106l-0.056,-0.107l-0.056,-0.106l-0.056,-0.107l-0.057,-0.106l-0.057,-0.107l-0.057,-0.106l-0.058,-0.106l-0.058,-0.106l-0.058,-0.107l-0.059,-0.106l-0.059,-0.106l-0.06,-0.106l-0.059,-0.106l-0.061,-0.106l-0.06,-0.106l-0.061,-0.106l-0.061,-0.106l-0.061,-0.106l-0.062,-0.106l-0.062,-0.106l-0.063,-0.106l-0.063,-0.105l-0.063,-0.106l-0.063,-0.106l-0.064,-0.105l-0.064,-0.106l-0.065,-0.106l-0.065,-0.105l-0.065,-0.106l-0.066,-0.105l-0.066,-0.106l-0.066,-0.105l-0.067,-0.106l-0.067,-0.105l-0.067,-0.105l-0.067,-0.105l-0.068,-0.106l-0.069,-0.105l-0.069,-0.105l-0.069,-0.105l-0.069,-0.105l-0.07,-0.105l-0.07,-0.105l-0.07,-0.105l-0.071,-0.105l-0.071,-0.105l-0.071,-0.105l-0.072,-0.105l-0.072,-0.105l-0.073,-0.105l-0.073,-0.104l-0.073,-0.105l-0.073,-0.105l-0.074,-0.104l-0.074,-0.105l-0.075,-0.105l-0.075,-0.104l-0.075,-0.105l-0.076,-0.104l-0.076,-0.105l-0.076,-0.104l-0.076,-0.104l-0.077,-0.105l-0.078,-0.104l-0.077,-0.104l-0.078,-0.105l-0.079,-0.104l-0.079,-0.104l-0.079,-0.104l-0.079,-0.104l-0.08,-0.104l-0.08,-0.104l-0.08,-0.104l-0.081,-0.104l-0.081,-0.104l-0.082,-0.104l-0.082,-0.104l-0.082,-0.104l-0.082,-0.104l-0.083,-0.103l-0.083,-0.104l-0.084,-0.104l-0.084,-0.103l-0.084,-0.104l-0.085,-0.104l-0.085,-0.103l-0.085,-0.104l-0.086,-0.103l-0.086,-0.104l-0.086,-0.103l-0.087,-0.103l-0.087,-0.104l-0.087,-0.103l-0.088,-0.103l-0.088,-0.104l-0.089,-0.103l-0.089,-0.103l-0.089,-0.103l-0.089,-0.103l-0.09,-0.103l-0.09,-0.103l-0.091,-0.103l-0.091,-0.103l-0.091,-0.103l-0.092,-0.103l-0.092,-0.103l-0.092,-0.103l-0.093,-0.103l-0.093,-0.103l-0.093,-0.102l-0.094,-0.103l-0.094,-0.103l-0.094,-0.102l-0.095,-0.103l-0.095,-0.103l-0.096,-0.102l-0.096,-0.103l-0.096,-0.102l-0.096,-0.103l-0.097,-0.102l-0.098,-0.102l-0.097,-0.103l-0.098,-0.102l-0.099,-0.102l-0.098,-0.102l-0.099,-0.103l-0.1,-0.102l-0.099,-0.102l-0.1,-0.102l-0.101,-0.102l-0.101,-0.102l-0.101,-0.102l-0.101,-0.102l-0.102,-0.102l-0.102,-0.102l-0.103,-0.102l-0.103,-0.102l-0.103,-0.102l-0.104,-0.101l-0.104,-0.102l-0.104,-0.102l-0.105,-0.101l-0.105,-0.102l-0.105,-0.102l-0.106,-0.101l-0.106,-0.102l-0.106,-0.101l-0.107,-0.102l-0.107,-0.101l-0.108,-0.102l-0.108,-0.101l-0.108,-0.101l-0.109,-0.102l-0.109,-0.101l-0.109,-0.101l-0.11,-0.101l-0.11,-0.102l-0.11,-0.101l-0.111,-0.101l-0.111,-0.101l-0.111,-0.101l-0.112,-0.101l-0.112,-0.101l-0.113,-0.101l-0.113,-0.101l-0.113,-0.101l-0.114,-0.1l-0.113,-0.101l-0.115,-0.101l-0.114,-0.101l-0.115,-0.1l-0.116,-0.101l-0.116,-0.101l-0.116,-0.1l-0.116,-0.101l-0.117,-0.101l-0.117,-0.1l-0.118,-0.101l-0.118,-0.1l-0.118,-0.1l-0.118,-0.101l-0.119,-0.1l-0.12,-0.1l-0.119,-0.101l-0.12,-0.1l-0.121,-0.1l-0.121,-0.1l-0.121,-0.1l-0.121,-0.101l-0.122,-0.1l-0.122,-0.1l-0.123,-0.1l-0.123,-0.1l-0.123,-0.1l-0.124,-0.1l-0.124,-0.099l-0.124,-0.1l-0.125,-0.1l-0.125,-0.1l-0.125,-0.1l-0.126,-0.099l-0.126,-0.1l-0.127,-0.1l-0.127,-0.099l-0.127,-0.1l-0.128,-0.099l-0.128,-0.1l-0.128,-0.099l-0.129,-0.1l-0.129,-0.099l-0.129,-0.1l-0.13,-0.099l-0.13,-0.099l-0.131,-0.099l-0.13,-0.1l-0.132,-0.099l-0.131,-0.099l-0.132,-0.099l-0.133,-0.099l-0.132,-0.099l-0.133,-0.099l-0.134,-0.1l-0.134,-0.098l-0.134,-0.099l-0.134,-0.099l-0.135,-0.099l-0.135,-0.099l-0.136,-0.099l-0.136,-0.099l-0.136,-0.098l-0.137,-0.099l-0.137,-0.099l-0.137,-0.098l-0.138,-0.099l-0.138,-0.099l-0.139,-0.098l-0.139,-0.099l-0.139,-0.098l-0.14,-0.099l-0.14,-0.098l-0.14,-0.098l-0.141,-0.099l-0.141,-0.098l-0.141,-0.098l-0.142,-0.099l-0.142,-0.098l-0.143,-0.098l-0.142,-0.098l-0.144,-0.098l-0.143,-0.098l-0.144,-0.098l-0.145,-0.098l-0.144,-0.098l-0.146,-0.098l-0.145,-0.098l-0.146,-0.098l-0.146,-0.098l-0.147,-0.098l-0.147,-0.097l-0.147,-0.098l-0.147,-0.098l-0.148,-0.098l-0.149,-0.097l-0.149,-0.098l-0.149,-0.097l-0.149,-0.098l-0.15,-0.097l-0.15,-0.098l-0.151,-0.097l-0.151,-0.098l-0.151,-0.097l-0.152,-0.098l-0.152,-0.097l-0.153,-0.097l-0.152,-0.097l-0.154,-0.098l-0.153,-0.097l-0.154,-0.097l-0.154,-0.097l-0.155,-0.097l-0.155,-0.097l-0.155,-0.097l-0.156,-0.097l-0.156,-0.097l-0.157,-0.097l-0.157,-0.097l-0.157,-0.097l-0.158,-0.096l-0.158,-0.097l-0.158,-0.097l-0.159,-0.097l-0.159,-0.096l-0.159,-0.097l-0.16,-0.096l-0.16,-0.097l-0.161,-0.097l-0.161,-0.096l-0.161,-0.097l-0.162,-0.096l-0.162,-0.096l-0.162,-0.097l-0.163,-0.096l-0.163,-0.096l-0.164,-0.097l-0.164,-0.096l-0.164,-0.096l-0.165,-0.096l-0.165,-0.096l-0.165,-0.096l-0.166,-0.096l-0.166,-0.097l-0.167,-0.095l-0.167,-0.096l-0.167,-0.096l-0.167,-0.096l-0.168,-0.096l-0.169,-0.096l-0.169,-0.096l-0.169,-0.095l-0.169,-0.096l-0.17,-0.096l-0.17,-0.096l-0.171,-0.095l-0.171,-0.096l-0.171,-0.095l-0.172,-0.096l-0.172,-0.095l-0.173,-0.096l-0.173,-0.095l-0.173,-0.096l-0.173,-0.095l-0.174,-0.095l-0.175,-0.095l-0.175,-0.096l-0.175,-0.095l-0.175,-0.095l-0.176,-0.095l-0.176,-0.095l-0.177,-0.095l-0.177,-0.095l-0.177,-0.095l-0.178,-0.095l-0.178,-0.095l-0.179,-0.095l-0.179,-0.095l-0.179,-0.095l-0.179,-0.095l-0.18,-0.094l-0.181,-0.095l-0.18,-0.095l-0.182,-0.095l-0.181,-0.094l-0.182,-0.095l-0.182,-0.094l-0.183,-0.095l-0.183,-0.094l-0.183,-0.095l-0.184,-0.094l-0.184,-0.095l-0.185,-0.094l-0.185,-0.094l-0.185,-0.095l-0.185,-0.094l-0.187,-0.094l-0.186,-0.094l-0.187,-0.094l-0.187,-0.094l-0.187,-0.095l-0.188,-0.094l-0.189,-0.094l-0.188,-0.094l-0.189,-0.094l-0.19,-0.093l-0.19,-0.094l-0.19,-0.094l-0.19,-0.094l-0.191,-0.094l-0.192,-0.093l-0.191,-0.094l-0.192,-0.094l-0.193,-0.093l-0.193,-0.094l-0.193,-0.094l-0.193,-0.093l-0.194,-0.094l-0.195,-0.093l-0.194,-0.093l-0.196,-0.094l-0.195,-0.093l-0.196,-0.094l-0.196,-0.093l-0.197,-0.093l-0.197,-0.093l-0.197,-0.093l-0.199,-0.094l-0.002,-0.001l-0.463,-0.36l-0.282,-0.497l-0.076,-0.567l0.15,-0.569l0.002,-0.002l0.001,-0.002l0.36,-0.465l0.497,-0.284l0.566,-0.077l0.568,0.149Z"/></g><g opacity="0.35"><path d="M90.691,1.731l0.497,0.284l0.36,0.465l0.003,0.004l0.15,0.569l-0.076,0.567l-0.282,0.497l-0.463,0.36l-0.002,0.001l-0.199,0.094l-0.197,0.093l-0.197,0.093l-0.197,0.093l-0.196,0.093l-0.196,0.094l-0.195,0.093l-0.196,0.094l-0.194,0.093l-0.195,0.093l-0.194,0.094l-0.193,0.093l-0.193,0.094l-0.193,0.094l-0.193,0.093l-0.192,0.094l-0.191,0.094l-0.192,0.093l-0.191,0.094l-0.19,0.094l-0.19,0.094l-0.19,0.094l-0.19,0.093l-0.189,0.094l-0.188,0.094l-0.189,0.094l-0.188,0.094l-0.187,0.095l-0.187,0.094l-0.187,0.094l-0.186,0.094l-0.187,0.094l-0.185,0.094l-0.185,0.095l-0.185,0.094l-0.185,0.094l-0.184,0.095l-0.184,0.094l-0.183,0.095l-0.183,0.094l-0.183,0.095l-0.182,0.094l-0.182,0.095l-0.181,0.094l-0.182,0.095l-0.18,0.095l-0.181,0.095l-0.18,0.094l-0.179,0.095l-0.179,0.095l-0.179,0.095l-0.179,0.095l-0.178,0.095l-0.178,0.095l-0.177,0.095l-0.177,0.095l-0.177,0.095l-0.176,0.095l-0.176,0.095l-0.175,0.095l-0.175,0.095l-0.175,0.096l-0.175,0.095l-0.174,0.095l-0.173,0.095l-0.173,0.096l-0.173,0.095l-0.173,0.096l-0.172,0.095l-0.172,0.096l-0.171,0.095l-0.171,0.096l-0.171,0.095l-0.17,0.096l-0.17,0.096l-0.169,0.096l-0.169,0.095l-0.169,0.096l-0.169,0.096l-0.168,0.096l-0.167,0.096l-0.167,0.096l-0.167,0.096l-0.167,0.095l-0.166,0.097l-0.166,0.096l-0.165,0.096l-0.165,0.096l-0.165,0.096l-0.164,0.096l-0.164,0.096l-0.164,0.097l-0.163,0.096l-0.163,0.096l-0.162,0.097l-0.162,0.096l-0.162,0.096l-0.161,0.097l-0.161,0.096l-0.161,0.097l-0.16,0.097l-0.16,0.096l-0.159,0.097l-0.159,0.096l-0.159,0.097l-0.158,0.097l-0.158,0.097l-0.158,0.096l-0.157,0.097l-0.157,0.097l-0.157,0.097l-0.156,0.097l-0.156,0.097l-0.155,0.097l-0.155,0.097l-0.155,0.097l-0.154,0.097l-0.154,0.097l-0.153,0.097l-0.154,0.098l-0.152,0.097l-0.153,0.097l-0.152,0.097l-0.152,0.098l-0.151,0.097l-0.151,0.098l-0.151,0.097l-0.15,0.098l-0.15,0.097l-0.149,0.098l-0.149,0.097l-0.149,0.098l-0.149,0.097l-0.148,0.098l-0.147,0.098l-0.147,0.098l-0.147,0.097l-0.147,0.098l-0.146,0.098l-0.146,0.098l-0.145,0.098l-0.146,0.098l-0.144,0.098l-0.145,0.098l-0.144,0.098l-0.143,0.098l-0.144,0.098l-0.142,0.098l-0.143,0.098l-0.142,0.098l-0.142,0.099l-0.141,0.098l-0.141,0.098l-0.141,0.099l-0.14,0.098l-0.14,0.098l-0.14,0.099l-0.139,0.098l-0.139,0.099l-0.139,0.098l-0.138,0.099l-0.138,0.099l-0.137,0.098l-0.137,0.099l-0.137,0.099l-0.136,0.098l-0.136,0.099l-0.136,0.099l-0.135,0.099l-0.135,0.099l-0.134,0.099l-0.134,0.099l-0.134,0.098l-0.134,0.1l-0.133,0.099l-0.132,0.099l-0.133,0.099l-0.132,0.099l-0.131,0.099l-0.132,0.099l-0.13,0.1l-0.131,0.099l-0.13,0.099l-0.13,0.099l-0.129,0.1l-0.129,0.099l-0.129,0.1l-0.128,0.099l-0.128,0.1l-0.128,0.099l-0.127,0.1l-0.127,0.099l-0.127,0.1l-0.126,0.1l-0.126,0.099l-0.125,0.1l-0.125,0.1l-0.125,0.1l-0.124,0.1l-0.124,0.099l-0.124,0.1l-0.123,0.1l-0.123,0.1l-0.123,0.1l-0.122,0.1l-0.122,0.1l-0.121,0.101l-0.121,0.1l-0.121,0.1l-0.121,0.1l-0.12,0.1l-0.119,0.101l-0.12,0.1l-0.119,0.1l-0.118,0.101l-0.118,0.1l-0.118,0.1l-0.118,0.101l-0.117,0.1l-0.117,0.101l-0.116,0.101l-0.116,0.1l-0.116,0.101l-0.116,0.101l-0.115,0.1l-0.114,0.101l-0.115,0.101l-0.113,0.101l-0.114,0.1l-0.113,0.101l-0.113,0.101l-0.113,0.101l-0.112,0.101l-0.112,0.101l-0.111,0.101l-0.111,0.101l-0.111,0.101l-0.11,0.101l-0.11,0.102l-0.11,0.101l-0.109,0.101l-0.109,0.101l-0.109,0.102l-0.108,0.101l-0.108,0.101l-0.108,0.102l-0.107,0.101l-0.107,0.102l-0.106,0.101l-0.106,0.102l-0.106,0.101l-0.105,0.102l-0.105,0.102l-0.105,0.101l-0.104,0.102l-0.104,0.102l-0.104,0.101l-0.103,0.102l-0.103,0.102l-0.103,0.102l-0.102,0.102l-0.102,0.102l-0.101,0.102l-0.101,0.102l-0.101,0.102l-0.101,0.102l-0.1,0.102l-0.099,0.102l-0.1,0.102l-0.099,0.103l-0.098,0.102l-0.099,0.102l-0.098,0.102l-0.097,0.103l-0.098,0.102l-0.097,0.102l-0.096,0.103l-0.096,0.102l-0.096,0.103l-0.096,0.102l-0.095,0.103l-0.095,0.103l-0.094,0.102l-0.094,0.103l-0.094,0.103l-0.093,0.102l-0.093,0.103l-0.093,0.103l-0.092,0.103l-0.092,0.103l-0.092,0.103l-0.091,0.103l-0.091,0.103l-0.091,0.103l-0.09,0.103l-0.09,0.103l-0.089,0.103l-0.089,0.103l-0.089,0.103l-0.089,0.103l-0.088,0.104l-0.088,0.103l-0.087,0.103l-0.087,0.104l-0.087,0.103l-0.086,0.103l-0.086,0.104l-0.086,0.103l-0.085,0.104l-0.085,0.103l-0.085,0.104l-0.084,0.104l-0.084,0.103l-0.084,0.104l-0.083,0.104l-0.083,0.103l-0.082,0.104l-0.082,0.104l-0.082,0.104l-0.082,0.104l-0.081,0.104l-0.081,0.104l-0.08,0.104l-0.08,0.104l-0.08,0.104l-0.079,0.104l-0.079,0.104l-0.079,0.104l-0.079,0.104l-0.078,0.105l-0.077,0.104l-0.078,0.104l-0.077,0.105l-0.076,0.104l-0.076,0.104l-0.076,0.105l-0.076,0.104l-0.075,0.105l-0.075,0.104l-0.075,0.105l-0.074,0.105l-0.074,0.104l-0.073,0.105l-0.073,0.105l-0.073,0.104l-0.073,0.105l-0.072,0.105l-0.072,0.105l-0.071,0.105l-0.071,0.105l-0.071,0.105l-0.07,0.105l-0.07,0.105l-0.07,0.105l-0.069,0.105l-0.069,0.105l-0.069,0.105l-0.069,0.105l-0.068,0.106l-0.067,0.105l-0.067,0.105l-0.067,0.105l-0.067,0.106l-0.066,0.105l-0.066,0.106l-0.066,0.105l-0.065,0.106l-0.065,0.105l-0.065,0.106l-0.064,0.106l-0.064,0.105l-0.063,0.106l-0.063,0.106l-0.063,0.105l-0.063,0.106l-0.062,0.106l-0.062,0.106l-0.061,0.106l-0.061,0.106l-0.061,0.106l-0.06,0.106l-0.061,0.106l-0.059,0.106l-0.06,0.106l-0.059,0.106l-0.059,0.106l-0.058,0.107l-0.058,0.106l-0.058,0.106l-0.057,0.106l-0.057,0.107l-0.057,0.106l-0.056,0.107l-0.056,0.106l-0.056,0.107l-0.055,0.106l-0.055,0.107l-0.055,0.106l-0.054,0.107l-0.054,0.107l-0.054,0.106l-0.053,0.107l-0.053,0.107l-0.052,0.107l-0.053,0.107l-0.052,0.107l-0.051,0.107l-0.051,0.107l-0.051,0.107l-0.051,0.107l-0.05,0.107l-0.05,0.107l-0.049,0.107l-0.05,0.107l-0.049,0.107l-0.048,0.108l-0.048,0.107l-0.048,0.107l-0.048,0.108l-0.047,0.107l-0.047,0.108l-0.046,0.107l-0.046,0.108l-0.046,0.107l-0.045,0.108l-0.046,0.107l-0.044,0.108l-0.045,0.108l-0.044,0.108l-0.044,0.107l-0.043,0.108l-0.043,0.108l-0.043,0.108l-0.042,0.108l-0.043,0.108l-0.041,0.108l-0.042,0.108l-0.041,0.108l-0.041,0.108l-0.04,0.108l-0.04,0.108l-0.04,0.109l-0.039,0.108l-0.039,0.108l-0.039,0.108l-0.038,0.109l-0.038,0.108l-0.038,0.109l-0.037,0.108l-0.037,0.109l-0.037,0.108l-0.036,0.109l-0.036,0.108l-0.036,0.109l-0.035,0.109l-0.035,0.109l-0.035,0.108l-0.034,0.109l-0.034,0.109l-0.034,0.109l-0.033,0.109l-0.033,0.109l-0.033,0.109l-0.032,0.109l-0.032,0.109l-0.032,0.109l-0.031,0.109l-0.031,0.109l-0.031,0.11l-0.03,0.109l-0.03,0.109l-0.03,0.109l-0.029,0.11l-0.029,0.109l-0.029,0.11l-0.028,0.109l-0.028,0.11l-0.028,0.109l-0.027,0.11l-0.027,0.109l-0.027,0.11l-0.026,0.11l-0.026,0.11l-0.025,0.109l-0.026,0.11l-0.025,0.11l-0.024,0.11l-0.024,0.11l-0.024,0.11l-0.024,0.11l-0.023,0.11l-0.023,0.11l-0.023,0.11l-0.022,0.11l-0.022,0.111l-0.022,0.11l-0.021,0.11l-0.021,0.11l-0.02,0.111l-0.021,0.11l-0.02,0.111l-0.019,0.11l-0.02,0.111l-0.018,0.11l-0.019,0.111l-0.018,0.11l-0.018,0.111l-0.018,0.111l-0.017,0.11l-0.017,0.111l-0.017,0.111l-0.016,0.111l0.012,-0.112l0.012,-0.111l0.013,-0.111l0.013,-0.112l0.014,-0.111l0.013,-0.111l0.014,-0.112l0.015,-0.111l0.014,-0.111l0.016,-0.112l0.015,-0.111l0.016,-0.111l0.016,-0.111l0.016,-0.112l0.017,-0.111l0.017,-0.111l0.017,-0.111l0.018,-0.111l0.018,-0.112l0.019,-0.111l0.018,-0.111l0.02,-0.111l0.019,-0.111l0.02,-0.111l0.02,-0.111l0.02,-0.111l0.021,-0.111l0.021,-0.111l0.022,-0.111l0.022,-0.111l0.022,-0.112l0.022,-0.111l0.023,-0.11l0.023,-0.111l0.024,-0.111l0.024,-0.111l0.024,-0.111l0.024,-0.111l0.025,-0.111l0.026,-0.111l0.025,-0.111l0.026,-0.111l0.026,-0.111l0.027,-0.111l0.027,-0.11l0.027,-0.111l0.028,-0.111l0.028,-0.111l0.028,-0.111l0.029,-0.11l0.029,-0.111l0.029,-0.111l0.029,-0.111l0.03,-0.11l0.031,-0.111l0.031,-0.111l0.031,-0.11l0.031,-0.111l0.032,-0.111l0.032,-0.11l0.032,-0.111l0.033,-0.11l0.033,-0.111l0.033,-0.111l0.034,-0.11l0.034,-0.111l0.035,-0.11l0.035,-0.111l0.035,-0.11l0.035,-0.111l0.036,-0.11l0.036,-0.111l0.037,-0.11l0.037,-0.111l0.037,-0.11l0.037,-0.111l0.038,-0.11l0.039,-0.11l0.038,-0.111l0.039,-0.11l0.039,-0.11l0.04,-0.111l0.04,-0.11l0.04,-0.11l0.041,-0.111l0.041,-0.11l0.041,-0.11l0.042,-0.11l0.042,-0.111l0.043,-0.11l0.042,-0.11l0.044,-0.11l0.043,-0.11l0.044,-0.111l0.044,-0.11l0.044,-0.11l0.045,-0.11l0.045,-0.11l0.046,-0.11l0.046,-0.11l0.046,-0.11l0.047,-0.11l0.047,-0.11l0.047,-0.11l0.047,-0.11l0.048,-0.11l0.049,-0.11l0.048,-0.11l0.049,-0.11l0.05,-0.11l0.049,-0.11l0.05,-0.11l0.051,-0.11l0.051,-0.11l0.051,-0.109l0.051,-0.11l0.052,-0.11l0.052,-0.11l0.053,-0.11l0.052,-0.109l0.054,-0.11l0.053,-0.11l0.054,-0.109l0.054,-0.11l0.055,-0.11l0.055,-0.11l0.055,-0.109l0.056,-0.11l0.056,-0.109l0.056,-0.11l0.057,-0.11l0.057,-0.109l0.057,-0.11l0.058,-0.109l0.058,-0.11l0.059,-0.109l0.059,-0.11l0.059,-0.109l0.059,-0.11l0.06,-0.109l0.06,-0.11l0.061,-0.109l0.061,-0.109l0.061,-0.11l0.062,-0.109l0.062,-0.109l0.062,-0.11l0.063,-0.109l0.063,-0.109l0.063,-0.11l0.064,-0.109l0.064,-0.109l0.064,-0.109l0.065,-0.11l0.065,-0.109l0.066,-0.109l0.066,-0.109l0.066,-0.109l0.066,-0.109l0.067,-0.109l0.068,-0.109l0.067,-0.11l0.068,-0.109l0.069,-0.109l0.068,-0.109l0.069,-0.109l0.07,-0.109l0.069,-0.109l0.07,-0.108l0.071,-0.109l0.071,-0.109l0.071,-0.109l0.071,-0.109l0.072,-0.109l0.073,-0.109l0.072,-0.109l0.073,-0.108l0.073,-0.109l0.074,-0.109l0.074,-0.109l0.074,-0.108l0.075,-0.109l0.075,-0.109l0.076,-0.108l0.075,-0.109l0.076,-0.109l0.077,-0.108l0.077,-0.109l0.077,-0.109l0.078,-0.108l0.077,-0.109l0.079,-0.108l0.078,-0.109l0.079,-0.108l0.08,-0.109l0.079,-0.108l0.08,-0.109l0.081,-0.108l0.081,-0.108l0.081,-0.109l0.081,-0.108l0.082,-0.109l0.082,-0.108l0.083,-0.108l0.083,-0.108l0.083,-0.109l0.084,-0.108l0.084,-0.108l0.084,-0.108l0.085,-0.109l0.085,-0.108l0.085,-0.108l0.086,-0.108l0.086,-0.108l0.086,-0.108l0.087,-0.108l0.087,-0.108l0.088,-0.108l0.088,-0.108l0.088,-0.108l0.089,-0.108l0.089,-0.108l0.089,-0.108l0.09,-0.108l0.09,-0.108l0.09,-0.108l0.091,-0.108l0.091,-0.108l0.092,-0.108l0.092,-0.107l0.092,-0.108l0.092,-0.108l0.093,-0.108l0.094,-0.108l0.093,-0.107l0.094,-0.108l0.095,-0.108l0.094,-0.107l0.096,-0.108l0.095,-0.108l0.096,-0.107l0.096,-0.108l0.097,-0.107l0.096,-0.108l0.098,-0.107l0.097,-0.108l0.098,-0.107l0.099,-0.108l0.098,-0.107l0.099,-0.108l0.1,-0.107l0.1,-0.107l0.1,-0.108l0.1,-0.107l0.101,-0.107l0.101,-0.108l0.102,-0.107l0.102,-0.107l0.102,-0.107l0.103,-0.108l0.103,-0.107l0.103,-0.107l0.104,-0.107l0.104,-0.107l0.105,-0.108l0.105,-0.107l0.105,-0.107l0.105,-0.107l0.106,-0.107l0.107,-0.107l0.106,-0.107l0.107,-0.107l0.108,-0.107l0.107,-0.107l0.109,-0.107l0.108,-0.106l0.109,-0.107l0.109,-0.107l0.11,-0.107l0.11,-0.107l0.11,-0.107l0.111,-0.106l0.111,-0.107l0.111,-0.107l0.112,-0.107l0.112,-0.106l0.112,-0.107l0.113,-0.107l0.113,-0.106l0.114,-0.107l0.114,-0.106l0.114,-0.107l0.115,-0.107l0.115,-0.106l0.115,-0.107l0.116,-0.106l0.116,-0.107l0.116,-0.106l0.117,-0.106l0.117,-0.107l0.118,-0.106l0.118,-0.107l0.118,-0.106l0.119,-0.106l0.119,-0.107l0.119,-0.106l0.12,-0.106l0.12,-0.106l0.121,-0.107l0.121,-0.106l0.121,-0.106l0.121,-0.106l0.122,-0.106l0.123,-0.106l0.122,-0.106l0.123,-0.107l0.124,-0.106l0.124,-0.106l0.124,-0.106l0.124,-0.106l0.125,-0.106l0.126,-0.105l0.125,-0.106l0.126,-0.106l0.126,-0.106l0.127,-0.106l0.127,-0.106l0.128,-0.106l0.128,-0.106l0.128,-0.105l0.128,-0.106l0.129,-0.106l0.13,-0.106l0.129,-0.105l0.13,-0.106l0.131,-0.106l0.13,-0.105l0.132,-0.106l0.131,-0.105l0.132,-0.106l0.132,-0.105l0.133,-0.106l0.133,-0.105l0.133,-0.106l0.134,-0.105l0.134,-0.106l0.134,-0.105l0.135,-0.106l0.135,-0.105l0.136,-0.105l0.136,-0.106l0.136,-0.105l0.137,-0.105l0.137,-0.106l0.137,-0.105l0.138,-0.105l0.138,-0.105l0.138,-0.105l0.139,-0.106l0.14,-0.105l0.139,-0.105l0.14,-0.105l0.141,-0.105l0.14,-0.105l0.141,-0.105l0.142,-0.105l0.142,-0.105l0.142,-0.105l0.142,-0.105l0.143,-0.105l0.144,-0.105l0.143,-0.105l0.144,-0.105l0.145,-0.104l0.145,-0.105l0.145,-0.105l0.145,-0.105l0.146,-0.105l0.147,-0.104l0.146,-0.105l0.147,-0.105l0.148,-0.104l0.147,-0.105l0.149,-0.105l0.148,-0.104l0.149,-0.105l0.149,-0.104l0.15,-0.105l0.15,-0.105l0.15,-0.104l0.151,-0.104l0.151,-0.105l0.152,-0.104l0.151,-0.105l0.153,-0.104l0.152,-0.105l0.153,-0.104l0.154,-0.104l0.153,-0.104l0.154,-0.105l0.155,-0.104l0.155,-0.104l0.155,-0.104l0.156,-0.105l0.156,-0.104l0.156,-0.104l0.157,-0.104l0.157,-0.104l0.157,-0.104l0.158,-0.104l0.158,-0.104l0.159,-0.104l0.159,-0.104l0.159,-0.104l0.16,-0.104l0.16,-0.104l0.16,-0.104l0.161,-0.104l0.161,-0.104l0.162,-0.104l0.162,-0.104l0.162,-0.103l0.163,-0.104l0.163,-0.104l0.163,-0.104l0.164,-0.103l0.165,-0.104l0.164,-0.104l0.165,-0.103l0.165,-0.104l0.166,-0.104l0.166,-0.103l0.167,-0.104l0.166,-0.103l0.168,-0.104l0.167,-0.103l0.168,-0.104l0.169,-0.103l0.168,-0.104l0.169,-0.103l0.17,-0.104l0.17,-0.103l0.17,-0.103l0.17,-0.104l0.171,-0.103l0.172,-0.103l0.172,-0.103l0.172,-0.104l0.172,-0.103l0.173,-0.103l0.173,-0.103l0.174,-0.103l0.174,-0.103l0.174,-0.104l0.175,-0.103l0.175,-0.103l0.176,-0.103l0.175,-0.103l0.177,-0.103l0.176,-0.103l0.177,-0.103l0.178,-0.103l0.178,-0.103l0.178,-0.102l0.178,-0.103l0.179,-0.103l0.179,-0.103l0.18,-0.103l0.18,-0.102l0.181,-0.103l0.18,-0.103l0.182,-0.103l0.181,-0.102l0.182,-0.103l0.182,-0.103l0.183,-0.102l0.183,-0.103l0.184,-0.102l0.183,-0.103l0.185,-0.103l0.184,-0.102l0.185,-0.103l0.186,-0.102l0.185,-0.102l0.186,-0.103l0.187,-0.102l0.187,-0.103l0.187,-0.102l0.188,-0.102l0.188,-0.103l0.188,-0.102l0.189,-0.102l0.189,-0.102l0.19,-0.103l0.19,-0.102l0.19,-0.102l0.191,-0.102l0.191,-0.102l0.191,-0.102l0.192,-0.103l0.192,-0.102l0.193,-0.102l0.193,-0.102l0.193,-0.102l0.194,-0.102l0.194,-0.102l0.195,-0.102l0.194,-0.101l0.196,-0.102l0.195,-0.102l0.196,-0.102l0.196,-0.102l0.002,-0.001l0.568,-0.149l0.566,0.077Z"/><path d="M90.875,1.803l0.003,0.001l0.195,0.102l0.196,0.102l0.196,0.102l0.195,0.102l0.195,0.101l0.195,0.102l0.194,0.102l0.194,0.102l0.193,0.102l0.193,0.102l0.193,0.102l0.192,0.102l0.192,0.103l0.191,0.102l0.191,0.102l0.191,0.102l0.19,0.102l0.19,0.102l0.19,0.103l0.189,0.102l0.189,0.102l0.188,0.102l0.188,0.103l0.188,0.102l0.187,0.102l0.187,0.103l0.186,0.102l0.186,0.103l0.186,0.102l0.186,0.102l0.185,0.103l0.184,0.102l0.184,0.103l0.184,0.103l0.184,0.102l0.183,0.103l0.182,0.102l0.183,0.103l0.182,0.103l0.181,0.102l0.181,0.103l0.181,0.103l0.181,0.103l0.18,0.102l0.179,0.103l0.18,0.103l0.179,0.103l0.178,0.103l0.178,0.102l0.178,0.103l0.177,0.103l0.177,0.103l0.177,0.103l0.176,0.103l0.176,0.103l0.176,0.103l0.175,0.103l0.175,0.103l0.174,0.104l0.174,0.103l0.174,0.103l0.173,0.103l0.173,0.103l0.172,0.103l0.172,0.104l0.172,0.103l0.171,0.103l0.171,0.103l0.171,0.104l0.17,0.103l0.17,0.103l0.169,0.104l0.17,0.103l0.168,0.104l0.169,0.103l0.168,0.104l0.167,0.103l0.167,0.104l0.167,0.103l0.167,0.104l0.166,0.103l0.165,0.104l0.166,0.104l0.165,0.103l0.164,0.104l0.165,0.104l0.163,0.103l0.164,0.104l0.163,0.104l0.163,0.104l0.162,0.103l0.162,0.104l0.161,0.104l0.162,0.104l0.16,0.104l0.161,0.104l0.16,0.104l0.16,0.104l0.159,0.104l0.159,0.104l0.159,0.104l0.158,0.104l0.158,0.104l0.157,0.104l0.157,0.104l0.157,0.104l0.156,0.104l0.156,0.104l0.156,0.105l0.155,0.104l0.155,0.104l0.154,0.104l0.154,0.105l0.154,0.104l0.154,0.104l0.153,0.104l0.152,0.105l0.152,0.104l0.152,0.105l0.152,0.104l0.151,0.105l0.151,0.104l0.15,0.104l0.15,0.105l0.15,0.105l0.149,0.104l0.149,0.105l0.148,0.104l0.148,0.105l0.148,0.105l0.148,0.104l0.147,0.105l0.146,0.105l0.147,0.104l0.145,0.105l0.146,0.105l0.145,0.105l0.145,0.105l0.144,0.104l0.144,0.105l0.144,0.105l0.143,0.105l0.143,0.105l0.143,0.105l0.142,0.105l0.142,0.105l0.141,0.105l0.142,0.105l0.14,0.105l0.141,0.105l0.14,0.105l0.139,0.105l0.139,0.105l0.139,0.106l0.139,0.105l0.138,0.105l0.138,0.105l0.137,0.105l0.137,0.106l0.137,0.105l0.136,0.105l0.136,0.106l0.136,0.105l0.135,0.105l0.135,0.106l0.134,0.105l0.134,0.106l0.134,0.105l0.133,0.106l0.133,0.105l0.133,0.106l0.132,0.105l0.132,0.106l0.131,0.105l0.131,0.106l0.131,0.105l0.131,0.106l0.13,0.106l0.129,0.105l0.13,0.106l0.129,0.106l0.128,0.106l0.128,0.105l0.128,0.106l0.128,0.106l0.127,0.106l0.126,0.106l0.127,0.106l0.126,0.106l0.125,0.106l0.126,0.105l0.124,0.106l0.125,0.106l0.124,0.106l0.124,0.106l0.123,0.106l0.123,0.107l0.123,0.106l0.122,0.106l0.122,0.106l0.122,0.106l0.121,0.106l0.121,0.106l0.121,0.107l0.12,0.106l0.119,0.106l0.12,0.106l0.119,0.107l0.119,0.106l0.118,0.106l0.118,0.107l0.117,0.106l0.118,0.107l0.116,0.106l0.117,0.106l0.116,0.107l0.116,0.106l0.115,0.107l0.115,0.106l0.115,0.107l0.114,0.107l0.114,0.106l0.114,0.107l0.113,0.106l0.113,0.107l0.112,0.107l0.112,0.106l0.112,0.107l0.111,0.107l0.111,0.107l0.111,0.106l0.11,0.107l0.11,0.107l0.11,0.107l0.109,0.107l0.109,0.107l0.108,0.106l0.108,0.107l0.108,0.107l0.108,0.107l0.107,0.107l0.106,0.107l0.107,0.107l0.105,0.107l0.106,0.107l0.105,0.107l0.105,0.107l0.105,0.108l0.104,0.107l0.103,0.107l0.104,0.107l0.103,0.107l0.103,0.108l0.102,0.107l0.102,0.107l0.101,0.107l0.102,0.108l0.101,0.107l0.1,0.107l0.1,0.108l0.1,0.107l0.099,0.107l0.099,0.108l0.099,0.107l0.099,0.108l0.097,0.107l0.098,0.108l0.097,0.107l0.097,0.108l0.097,0.107l0.096,0.108l0.096,0.107l0.095,0.108l0.095,0.108l0.095,0.107l0.095,0.108l0.094,0.108l0.093,0.107l0.093,0.108l0.093,0.108l0.093,0.108l0.092,0.108l0.092,0.107l0.092,0.108l0.091,0.108l0.091,0.108l0.09,0.108l0.09,0.108l0.09,0.108l0.089,0.108l0.089,0.108l0.089,0.108l0.088,0.108l0.088,0.108l0.087,0.108l0.088,0.108l0.086,0.108l0.087,0.108l0.086,0.108l0.086,0.108l0.085,0.108l0.085,0.108l0.085,0.109l0.084,0.108l0.084,0.108l0.084,0.108l0.083,0.109l0.083,0.108l0.083,0.108l0.082,0.108l0.082,0.109l0.081,0.108l0.081,0.109l0.081,0.108l0.08,0.108l0.081,0.109l0.079,0.108l0.08,0.109l0.079,0.108l0.078,0.109l0.078,0.108l0.078,0.109l0.078,0.108l0.077,0.109l0.077,0.109l0.076,0.108l0.077,0.109l0.075,0.109l0.076,0.108l0.075,0.109l0.075,0.109l0.074,0.108l0.074,0.109l0.074,0.109l0.073,0.109l0.073,0.108l0.072,0.109l0.073,0.109l0.071,0.109l0.072,0.109l0.071,0.109l0.071,0.109l0.07,0.109l0.07,0.108l0.07,0.109l0.07,0.109l0.069,0.109l0.068,0.109l0.069,0.109l0.068,0.109l0.067,0.11l0.068,0.109l0.066,0.109l0.067,0.109l0.066,0.109l0.066,0.109l0.066,0.109l0.065,0.109l0.065,0.11l0.064,0.109l0.064,0.109l0.064,0.109l0.063,0.11l0.063,0.109l0.063,0.109l0.062,0.11l0.062,0.109l0.062,0.109l0.061,0.11l0.061,0.109l0.061,0.109l0.06,0.11l0.06,0.109l0.059,0.11l0.059,0.109l0.059,0.11l0.059,0.109l0.058,0.11l0.057,0.109l0.058,0.11l0.057,0.109l0.057,0.11l0.056,0.11l0.056,0.109l0.056,0.11l0.055,0.109l0.055,0.11l0.054,0.11l0.055,0.11l0.054,0.109l0.053,0.11l0.053,0.11l0.053,0.109l0.053,0.11l0.052,0.11l0.052,0.11l0.051,0.11l0.051,0.109l0.051,0.11l0.05,0.11l0.05,0.11l0.05,0.11l0.049,0.11l0.05,0.11l0.048,0.11l0.048,0.11l0.048,0.11l0.048,0.11l0.047,0.11l0.047,0.11l0.047,0.11l0.046,0.11l0.046,0.11l0.045,0.11l0.046,0.11l0.044,0.11l0.045,0.11l0.044,0.11l0.044,0.111l0.043,0.11l0.043,0.11l0.043,0.11l0.043,0.11l0.042,0.111l0.041,0.11l0.042,0.11l0.041,0.11l0.04,0.111l0.041,0.11l0.04,0.11l0.039,0.111l0.04,0.11l0.039,0.11l0.038,0.111l0.038,0.11l0.038,0.11l0.038,0.111l0.037,0.11l0.037,0.111l0.037,0.11l0.036,0.111l0.036,0.11l0.035,0.111l0.035,0.11l0.035,0.111l0.035,0.11l0.034,0.111l0.033,0.11l0.034,0.111l0.033,0.111l0.033,0.11l0.032,0.111l0.032,0.11l0.032,0.111l0.031,0.111l0.031,0.11l0.031,0.111l0.03,0.111l0.03,0.11l0.03,0.111l0.029,0.111l0.029,0.111l0.029,0.11l0.028,0.111l0.028,0.111l0.028,0.111l0.027,0.111l0.027,0.11l0.027,0.111l0.026,0.111l0.026,0.111l0.025,0.111l0.026,0.111l0.024,0.111l0.025,0.111l0.024,0.111l0.024,0.111l0.024,0.111l0.023,0.111l0.023,0.11l0.022,0.111l0.022,0.112l0.022,0.111l0.022,0.111l0.021,0.111l0.02,0.111l0.021,0.111l0.02,0.111l0.02,0.111l0.019,0.111l0.019,0.111l0.019,0.111l0.019,0.111l0.018,0.112l0.017,0.111l0.018,0.111l0.017,0.111l0.017,0.111l0.016,0.112l0.016,0.111l0.016,0.111l0.015,0.111l0.015,0.112l0.015,0.111l0.014,0.111l0.015,0.112l0.013,0.111l0.014,0.111l0.013,0.112l0.012,0.111l0.013,0.111l0.012,0.112l-0.016,-0.111l-0.017,-0.111l-0.017,-0.111l-0.017,-0.11l-0.018,-0.111l-0.018,-0.111l-0.018,-0.11l-0.019,-0.111l-0.019,-0.11l-0.019,-0.111l-0.019,-0.11l-0.02,-0.111l-0.021,-0.11l-0.02,-0.111l-0.021,-0.11l-0.021,-0.11l-0.022,-0.11l-0.022,-0.111l-0.022,-0.11l-0.023,-0.11l-0.023,-0.11l-0.023,-0.11l-0.024,-0.11l-0.024,-0.11l-0.024,-0.11l-0.025,-0.11l-0.024,-0.11l-0.026,-0.11l-0.025,-0.109l-0.026,-0.11l-0.027,-0.11l-0.026,-0.11l-0.027,-0.109l-0.027,-0.11l-0.028,-0.109l-0.028,-0.11l-0.028,-0.109l-0.029,-0.11l-0.029,-0.109l-0.029,-0.11l-0.03,-0.109l-0.03,-0.109l-0.03,-0.109l-0.031,-0.11l-0.031,-0.109l-0.031,-0.109l-0.032,-0.109l-0.032,-0.109l-0.032,-0.109l-0.033,-0.109l-0.033,-0.109l-0.033,-0.109l-0.034,-0.109l-0.034,-0.109l-0.034,-0.109l-0.035,-0.108l-0.035,-0.109l-0.035,-0.109l-0.036,-0.109l-0.036,-0.108l-0.036,-0.109l-0.037,-0.108l-0.037,-0.109l-0.037,-0.108l-0.038,-0.109l-0.038,-0.108l-0.038,-0.109l-0.039,-0.108l-0.039,-0.108l-0.039,-0.108l-0.04,-0.109l-0.04,-0.108l-0.041,-0.108l-0.04,-0.108l-0.041,-0.108l-0.042,-0.108l-0.042,-0.108l-0.042,-0.108l-0.042,-0.108l-0.043,-0.108l-0.043,-0.108l-0.043,-0.108l-0.044,-0.107l-0.044,-0.108l-0.045,-0.108l-0.045,-0.108l-0.045,-0.107l-0.045,-0.108l-0.046,-0.107l-0.046,-0.108l-0.047,-0.107l-0.046,-0.108l-0.048,-0.107l-0.047,-0.108l-0.048,-0.107l-0.048,-0.107l-0.049,-0.108l-0.048,-0.107l-0.05,-0.107l-0.049,-0.107l-0.05,-0.107l-0.05,-0.107l-0.051,-0.107l-0.051,-0.107l-0.051,-0.107l-0.052,-0.107l-0.051,-0.107l-0.053,-0.107l-0.052,-0.107l-0.053,-0.107l-0.054,-0.107l-0.053,-0.106l-0.054,-0.107l-0.054,-0.107l-0.055,-0.106l-0.055,-0.107l-0.055,-0.106l-0.056,-0.107l-0.056,-0.106l-0.056,-0.107l-0.057,-0.106l-0.057,-0.107l-0.057,-0.106l-0.058,-0.106l-0.058,-0.106l-0.059,-0.107l-0.058,-0.106l-0.059,-0.106l-0.06,-0.106l-0.06,-0.106l-0.06,-0.106l-0.06,-0.106l-0.061,-0.106l-0.061,-0.106l-0.062,-0.106l-0.061,-0.106l-0.062,-0.106l-0.063,-0.106l-0.063,-0.105l-0.063,-0.106l-0.064,-0.106l-0.063,-0.105l-0.065,-0.106l-0.064,-0.106l-0.065,-0.105l-0.065,-0.106l-0.066,-0.105l-0.066,-0.106l-0.066,-0.105l-0.067,-0.106l-0.067,-0.105l-0.067,-0.105l-0.068,-0.105l-0.068,-0.106l-0.068,-0.105l-0.069,-0.105l-0.069,-0.105l-0.069,-0.105l-0.07,-0.105l-0.07,-0.105l-0.07,-0.105l-0.071,-0.105l-0.071,-0.105l-0.072,-0.105l-0.071,-0.105l-0.072,-0.105l-0.073,-0.105l-0.073,-0.104l-0.073,-0.105l-0.073,-0.105l-0.074,-0.104l-0.074,-0.105l-0.075,-0.105l-0.075,-0.104l-0.075,-0.105l-0.076,-0.104l-0.076,-0.105l-0.076,-0.104l-0.077,-0.104l-0.077,-0.105l-0.077,-0.104l-0.078,-0.104l-0.078,-0.105l-0.078,-0.104l-0.079,-0.104l-0.079,-0.104l-0.079,-0.104l-0.08,-0.104l-0.08,-0.104l-0.08,-0.104l-0.081,-0.104l-0.081,-0.104l-0.082,-0.104l-0.082,-0.104l-0.082,-0.104l-0.082,-0.104l-0.083,-0.103l-0.084,-0.104l-0.083,-0.104l-0.084,-0.103l-0.084,-0.104l-0.085,-0.104l-0.085,-0.103l-0.085,-0.104l-0.086,-0.103l-0.086,-0.104l-0.086,-0.103l-0.087,-0.103l-0.087,-0.104l-0.088,-0.103l-0.087,-0.103l-0.088,-0.104l-0.089,-0.103l-0.089,-0.103l-0.089,-0.103l-0.089,-0.103l-0.09,-0.103l-0.091,-0.103l-0.09,-0.103l-0.091,-0.103l-0.091,-0.103l-0.092,-0.103l-0.092,-0.103l-0.092,-0.103l-0.093,-0.103l-0.093,-0.103l-0.093,-0.102l-0.094,-0.103l-0.094,-0.103l-0.095,-0.102l-0.094,-0.103l-0.096,-0.103l-0.095,-0.102l-0.096,-0.103l-0.096,-0.102l-0.097,-0.103l-0.097,-0.102l-0.097,-0.102l-0.097,-0.103l-0.098,-0.102l-0.099,-0.102l-0.098,-0.102l-0.099,-0.103l-0.1,-0.102l-0.099,-0.102l-0.101,-0.102l-0.1,-0.102l-0.101,-0.102l-0.101,-0.102l-0.101,-0.102l-0.102,-0.102l-0.102,-0.102l-0.103,-0.102l-0.103,-0.102l-0.103,-0.102l-0.104,-0.101l-0.104,-0.102l-0.104,-0.102l-0.105,-0.101l-0.105,-0.102l-0.105,-0.102l-0.106,-0.101l-0.106,-0.102l-0.107,-0.101l-0.106,-0.102l-0.108,-0.101l-0.107,-0.102l-0.108,-0.101l-0.108,-0.101l-0.109,-0.102l-0.109,-0.101l-0.109,-0.101l-0.11,-0.101l-0.11,-0.102l-0.11,-0.101l-0.111,-0.101l-0.111,-0.101l-0.111,-0.101l-0.112,-0.101l-0.112,-0.101l-0.113,-0.101l-0.113,-0.101l-0.113,-0.101l-0.114,-0.1l-0.114,-0.101l-0.114,-0.101l-0.115,-0.101l-0.115,-0.1l-0.115,-0.101l-0.116,-0.101l-0.116,-0.1l-0.116,-0.101l-0.117,-0.101l-0.117,-0.1l-0.118,-0.101l-0.118,-0.1l-0.118,-0.1l-0.119,-0.101l-0.119,-0.1l-0.119,-0.1l-0.12,-0.101l-0.12,-0.1l-0.12,-0.1l-0.121,-0.1l-0.121,-0.1l-0.121,-0.101l-0.122,-0.1l-0.122,-0.1l-0.123,-0.1l-0.123,-0.1l-0.123,-0.1l-0.124,-0.1l-0.124,-0.099l-0.124,-0.1l-0.125,-0.1l-0.125,-0.1l-0.126,-0.1l-0.125,-0.099l-0.126,-0.1l-0.127,-0.1l-0.127,-0.099l-0.127,-0.1l-0.128,-0.099l-0.128,-0.1l-0.128,-0.099l-0.129,-0.1l-0.129,-0.099l-0.129,-0.1l-0.13,-0.099l-0.13,-0.099l-0.131,-0.099l-0.131,-0.1l-0.131,-0.099l-0.131,-0.099l-0.132,-0.099l-0.133,-0.099l-0.132,-0.099l-0.134,-0.099l-0.133,-0.1l-0.134,-0.098l-0.134,-0.099l-0.134,-0.099l-0.135,-0.099l-0.135,-0.099l-0.136,-0.099l-0.136,-0.099l-0.136,-0.098l-0.137,-0.099l-0.137,-0.099l-0.138,-0.098l-0.137,-0.099l-0.138,-0.099l-0.139,-0.098l-0.139,-0.099l-0.139,-0.098l-0.14,-0.099l-0.14,-0.098l-0.14,-0.098l-0.141,-0.099l-0.141,-0.098l-0.141,-0.098l-0.142,-0.099l-0.142,-0.098l-0.143,-0.098l-0.143,-0.098l-0.143,-0.098l-0.144,-0.098l-0.143,-0.098l-0.145,-0.098l-0.145,-0.098l-0.145,-0.098l-0.145,-0.098l-0.146,-0.098l-0.146,-0.098l-0.147,-0.098l-0.147,-0.097l-0.147,-0.098l-0.148,-0.098l-0.148,-0.098l-0.148,-0.097l-0.149,-0.098l-0.149,-0.097l-0.149,-0.098l-0.15,-0.097l-0.151,-0.098l-0.15,-0.097l-0.151,-0.098l-0.151,-0.097l-0.152,-0.098l-0.152,-0.097l-0.153,-0.097l-0.153,-0.097l-0.153,-0.098l-0.153,-0.097l-0.154,-0.097l-0.154,-0.097l-0.155,-0.097l-0.155,-0.097l-0.156,-0.097l-0.155,-0.097l-0.156,-0.097l-0.157,-0.097l-0.157,-0.097l-0.157,-0.097l-0.158,-0.096l-0.158,-0.097l-0.158,-0.097l-0.159,-0.097l-0.159,-0.096l-0.159,-0.097l-0.16,-0.096l-0.16,-0.097l-0.161,-0.097l-0.161,-0.096l-0.161,-0.097l-0.162,-0.096l-0.162,-0.096l-0.162,-0.097l-0.163,-0.096l-0.163,-0.096l-0.164,-0.097l-0.164,-0.096l-0.164,-0.096l-0.165,-0.096l-0.165,-0.096l-0.165,-0.096l-0.166,-0.096l-0.166,-0.097l-0.167,-0.095l-0.167,-0.096l-0.167,-0.096l-0.168,-0.096l-0.168,-0.096l-0.168,-0.096l-0.169,-0.096l-0.169,-0.095l-0.169,-0.096l-0.17,-0.096l-0.171,-0.096l-0.17,-0.095l-0.171,-0.096l-0.172,-0.095l-0.171,-0.096l-0.172,-0.095l-0.173,-0.096l-0.173,-0.095l-0.173,-0.096l-0.174,-0.095l-0.174,-0.095l-0.174,-0.095l-0.175,-0.096l-0.175,-0.095l-0.175,-0.095l-0.176,-0.095l-0.176,-0.095l-0.177,-0.095l-0.177,-0.095l-0.177,-0.095l-0.178,-0.095l-0.178,-0.095l-0.179,-0.095l-0.179,-0.095l-0.179,-0.095l-0.18,-0.095l-0.18,-0.094l-0.18,-0.095l-0.181,-0.095l-0.181,-0.095l-0.181,-0.094l-0.182,-0.095l-0.182,-0.094l-0.183,-0.095l-0.183,-0.094l-0.183,-0.095l-0.184,-0.094l-0.184,-0.095l-0.185,-0.094l-0.185,-0.094l-0.185,-0.095l-0.186,-0.094l-0.186,-0.094l-0.186,-0.094l-0.187,-0.094l-0.187,-0.094l-0.188,-0.095l-0.187,-0.094l-0.189,-0.094l-0.188,-0.094l-0.189,-0.094l-0.19,-0.093l-0.19,-0.094l-0.19,-0.094l-0.19,-0.094l-0.191,-0.094l-0.192,-0.093l-0.191,-0.094l-0.192,-0.094l-0.193,-0.093l-0.193,-0.094l-0.193,-0.094l-0.194,-0.093l-0.194,-0.094l-0.194,-0.093l-0.195,-0.093l-0.195,-0.094l-0.195,-0.093l-0.196,-0.094l-0.196,-0.093l-0.197,-0.093l-0.197,-0.093l-0.197,-0.093l-0.199,-0.094l-0.002,-0.001l-0.463,-0.36l-0.282,-0.497l-0.076,-0.567l0.15,-0.569l0.001,-0.002l0.001,-0.002l0.361,-0.465l0.497,-0.284l0.566,-0.077l0.567,0.149Z"/></g><g opacity="0.7"><path d="M71.942,1.731l0.497,0.284l0.36,0.465l0.002,0.004l0.151,0.569l-0.076,0.567l-0.282,0.497l-0.463,0.36l-0.002,0.001l-0.199,0.094l-0.197,0.093l-0.197,0.093l-0.197,0.093l-0.196,0.093l-0.196,0.094l-0.195,0.093l-0.196,0.094l-0.194,0.093l-0.195,0.093l-0.194,0.094l-0.193,0.093l-0.193,0.094l-0.193,0.094l-0.193,0.093l-0.192,0.094l-0.192,0.094l-0.191,0.093l-0.191,0.094l-0.19,0.094l-0.191,0.094l-0.189,0.094l-0.19,0.093l-0.189,0.094l-0.188,0.094l-0.189,0.094l-0.188,0.094l-0.187,0.095l-0.187,0.094l-0.187,0.094l-0.187,0.094l-0.186,0.094l-0.185,0.094l-0.185,0.095l-0.185,0.094l-0.185,0.094l-0.184,0.095l-0.184,0.094l-0.183,0.095l-0.183,0.094l-0.183,0.095l-0.182,0.094l-0.182,0.095l-0.181,0.094l-0.182,0.095l-0.18,0.095l-0.181,0.095l-0.18,0.094l-0.179,0.095l-0.18,0.095l-0.178,0.095l-0.179,0.095l-0.178,0.095l-0.178,0.095l-0.177,0.095l-0.177,0.095l-0.177,0.095l-0.176,0.095l-0.176,0.095l-0.175,0.095l-0.175,0.095l-0.175,0.096l-0.175,0.095l-0.174,0.095l-0.173,0.095l-0.173,0.096l-0.173,0.095l-0.173,0.096l-0.172,0.095l-0.172,0.096l-0.171,0.095l-0.171,0.096l-0.171,0.095l-0.17,0.096l-0.17,0.096l-0.169,0.096l-0.169,0.095l-0.169,0.096l-0.169,0.096l-0.168,0.096l-0.167,0.096l-0.168,0.096l-0.166,0.096l-0.167,0.095l-0.166,0.097l-0.166,0.096l-0.165,0.096l-0.165,0.096l-0.165,0.096l-0.164,0.096l-0.164,0.096l-0.164,0.097l-0.163,0.096l-0.163,0.096l-0.162,0.097l-0.162,0.096l-0.162,0.096l-0.161,0.097l-0.161,0.096l-0.161,0.097l-0.16,0.097l-0.16,0.096l-0.159,0.097l-0.159,0.096l-0.159,0.097l-0.159,0.097l-0.158,0.097l-0.157,0.096l-0.157,0.097l-0.157,0.097l-0.157,0.097l-0.156,0.097l-0.156,0.097l-0.155,0.097l-0.155,0.097l-0.155,0.097l-0.154,0.097l-0.154,0.097l-0.154,0.097l-0.153,0.098l-0.153,0.097l-0.152,0.097l-0.152,0.097l-0.152,0.098l-0.151,0.097l-0.151,0.098l-0.151,0.097l-0.15,0.098l-0.15,0.097l-0.149,0.098l-0.149,0.097l-0.149,0.098l-0.149,0.097l-0.148,0.098l-0.147,0.098l-0.148,0.098l-0.146,0.097l-0.147,0.098l-0.146,0.098l-0.146,0.098l-0.146,0.098l-0.145,0.098l-0.144,0.098l-0.145,0.098l-0.144,0.098l-0.143,0.098l-0.144,0.098l-0.143,0.098l-0.142,0.098l-0.142,0.098l-0.142,0.099l-0.141,0.098l-0.142,0.098l-0.14,0.099l-0.141,0.098l-0.14,0.098l-0.139,0.099l-0.139,0.098l-0.139,0.099l-0.139,0.098l-0.138,0.099l-0.138,0.099l-0.137,0.098l-0.137,0.099l-0.137,0.099l-0.136,0.098l-0.136,0.099l-0.136,0.099l-0.135,0.099l-0.135,0.099l-0.134,0.099l-0.135,0.099l-0.133,0.098l-0.134,0.1l-0.133,0.099l-0.132,0.099l-0.133,0.099l-0.132,0.099l-0.131,0.099l-0.132,0.099l-0.13,0.1l-0.131,0.099l-0.13,0.099l-0.13,0.099l-0.129,0.1l-0.129,0.099l-0.129,0.1l-0.128,0.099l-0.128,0.1l-0.128,0.099l-0.127,0.1l-0.127,0.099l-0.127,0.1l-0.126,0.1l-0.126,0.099l-0.125,0.1l-0.125,0.1l-0.125,0.1l-0.124,0.1l-0.124,0.099l-0.124,0.1l-0.123,0.1l-0.123,0.1l-0.123,0.1l-0.122,0.1l-0.122,0.1l-0.121,0.101l-0.121,0.1l-0.121,0.1l-0.121,0.1l-0.12,0.1l-0.119,0.101l-0.12,0.1l-0.119,0.1l-0.118,0.101l-0.118,0.1l-0.118,0.1l-0.118,0.101l-0.117,0.1l-0.117,0.101l-0.116,0.101l-0.116,0.1l-0.116,0.101l-0.116,0.101l-0.115,0.1l-0.114,0.101l-0.115,0.101l-0.114,0.101l-0.113,0.1l-0.113,0.101l-0.113,0.101l-0.113,0.101l-0.112,0.101l-0.112,0.101l-0.111,0.101l-0.111,0.101l-0.111,0.101l-0.11,0.101l-0.11,0.102l-0.11,0.101l-0.109,0.101l-0.109,0.101l-0.109,0.102l-0.108,0.101l-0.108,0.101l-0.108,0.102l-0.107,0.101l-0.107,0.102l-0.106,0.101l-0.106,0.102l-0.106,0.101l-0.105,0.102l-0.105,0.102l-0.105,0.101l-0.104,0.102l-0.104,0.102l-0.104,0.101l-0.103,0.102l-0.103,0.102l-0.103,0.102l-0.102,0.102l-0.102,0.102l-0.101,0.102l-0.101,0.102l-0.101,0.102l-0.101,0.102l-0.1,0.102l-0.099,0.102l-0.1,0.102l-0.099,0.103l-0.099,0.102l-0.098,0.102l-0.098,0.102l-0.097,0.103l-0.098,0.102l-0.097,0.102l-0.096,0.103l-0.096,0.102l-0.096,0.103l-0.096,0.102l-0.095,0.103l-0.095,0.103l-0.094,0.102l-0.094,0.103l-0.094,0.103l-0.093,0.102l-0.093,0.103l-0.093,0.103l-0.092,0.103l-0.092,0.103l-0.092,0.103l-0.091,0.103l-0.091,0.103l-0.091,0.103l-0.09,0.103l-0.09,0.103l-0.089,0.103l-0.089,0.103l-0.089,0.103l-0.089,0.103l-0.088,0.104l-0.088,0.103l-0.087,0.103l-0.087,0.104l-0.087,0.103l-0.086,0.103l-0.086,0.104l-0.086,0.103l-0.085,0.104l-0.085,0.103l-0.085,0.104l-0.084,0.104l-0.084,0.103l-0.084,0.104l-0.083,0.104l-0.083,0.103l-0.082,0.104l-0.083,0.104l-0.081,0.104l-0.082,0.104l-0.081,0.104l-0.081,0.104l-0.08,0.104l-0.08,0.104l-0.08,0.104l-0.08,0.104l-0.079,0.104l-0.078,0.104l-0.079,0.104l-0.078,0.105l-0.077,0.104l-0.078,0.104l-0.077,0.105l-0.076,0.104l-0.077,0.104l-0.075,0.105l-0.076,0.104l-0.075,0.105l-0.075,0.104l-0.075,0.105l-0.074,0.105l-0.074,0.104l-0.073,0.105l-0.073,0.105l-0.073,0.104l-0.073,0.105l-0.072,0.105l-0.072,0.105l-0.071,0.105l-0.071,0.105l-0.071,0.105l-0.07,0.105l-0.07,0.105l-0.07,0.105l-0.07,0.105l-0.069,0.105l-0.068,0.105l-0.069,0.105l-0.068,0.106l-0.067,0.105l-0.068,0.105l-0.066,0.105l-0.067,0.106l-0.066,0.105l-0.066,0.106l-0.066,0.105l-0.065,0.106l-0.065,0.105l-0.065,0.106l-0.064,0.106l-0.064,0.105l-0.063,0.106l-0.063,0.106l-0.063,0.105l-0.063,0.106l-0.062,0.106l-0.062,0.106l-0.061,0.106l-0.061,0.106l-0.061,0.106l-0.061,0.106l-0.06,0.106l-0.059,0.106l-0.06,0.106l-0.059,0.106l-0.059,0.106l-0.058,0.107l-0.058,0.106l-0.058,0.106l-0.057,0.106l-0.057,0.107l-0.057,0.106l-0.056,0.107l-0.056,0.106l-0.056,0.107l-0.055,0.106l-0.055,0.107l-0.055,0.106l-0.054,0.107l-0.054,0.107l-0.054,0.106l-0.053,0.107l-0.053,0.107l-0.052,0.107l-0.053,0.107l-0.052,0.107l-0.051,0.107l-0.051,0.107l-0.051,0.107l-0.051,0.107l-0.05,0.107l-0.05,0.107l-0.05,0.107l-0.049,0.107l-0.049,0.107l-0.048,0.108l-0.048,0.107l-0.048,0.107l-0.048,0.108l-0.047,0.107l-0.047,0.108l-0.046,0.107l-0.046,0.108l-0.046,0.107l-0.046,0.108l-0.045,0.107l-0.044,0.108l-0.045,0.108l-0.044,0.108l-0.044,0.107l-0.043,0.108l-0.043,0.108l-0.043,0.108l-0.043,0.108l-0.042,0.108l-0.041,0.108l-0.042,0.108l-0.041,0.108l-0.041,0.108l-0.04,0.108l-0.04,0.108l-0.04,0.109l-0.039,0.108l-0.039,0.108l-0.039,0.108l-0.038,0.109l-0.038,0.108l-0.038,0.109l-0.037,0.108l-0.037,0.109l-0.037,0.108l-0.036,0.109l-0.037,0.108l-0.035,0.109l-0.036,0.109l-0.035,0.109l-0.034,0.108l-0.035,0.109l-0.034,0.109l-0.033,0.109l-0.034,0.109l-0.033,0.109l-0.032,0.109l-0.033,0.109l-0.031,0.109l-0.032,0.109l-0.031,0.109l-0.031,0.109l-0.031,0.11l-0.03,0.109l-0.03,0.109l-0.03,0.109l-0.029,0.11l-0.029,0.109l-0.029,0.11l-0.028,0.109l-0.028,0.11l-0.028,0.109l-0.027,0.11l-0.027,0.109l-0.027,0.11l-0.026,0.11l-0.026,0.11l-0.025,0.109l-0.026,0.11l-0.025,0.11l-0.024,0.11l-0.025,0.11l-0.024,0.11l-0.023,0.11l-0.023,0.11l-0.023,0.11l-0.023,0.11l-0.022,0.11l-0.022,0.111l-0.022,0.11l-0.021,0.11l-0.021,0.11l-0.021,0.111l-0.02,0.11l-0.02,0.111l-0.019,0.11l-0.02,0.111l-0.019,0.11l-0.018,0.111l-0.018,0.11l-0.018,0.111l-0.018,0.111l-0.017,0.11l-0.017,0.111l-0.017,0.111l-0.016,0.111l0.012,-0.112l0.012,-0.111l0.013,-0.111l0.013,-0.112l0.014,-0.111l0.013,-0.111l0.014,-0.112l0.015,-0.111l0.014,-0.111l0.015,-0.112l0.016,-0.111l0.016,-0.111l0.016,-0.111l0.016,-0.112l0.017,-0.111l0.017,-0.111l0.017,-0.111l0.018,-0.111l0.018,-0.112l0.019,-0.111l0.018,-0.111l0.019,-0.111l0.02,-0.111l0.02,-0.111l0.02,-0.111l0.02,-0.111l0.021,-0.111l0.021,-0.111l0.022,-0.111l0.022,-0.111l0.022,-0.112l0.022,-0.111l0.023,-0.11l0.023,-0.111l0.024,-0.111l0.024,-0.111l0.024,-0.111l0.024,-0.111l0.025,-0.111l0.025,-0.111l0.026,-0.111l0.026,-0.111l0.026,-0.111l0.027,-0.111l0.027,-0.11l0.027,-0.111l0.028,-0.111l0.028,-0.111l0.028,-0.111l0.028,-0.11l0.029,-0.111l0.03,-0.111l0.029,-0.111l0.03,-0.11l0.031,-0.111l0.03,-0.111l0.031,-0.11l0.032,-0.111l0.032,-0.111l0.032,-0.11l0.032,-0.111l0.033,-0.11l0.033,-0.111l0.033,-0.111l0.034,-0.11l0.034,-0.111l0.035,-0.11l0.035,-0.111l0.035,-0.11l0.035,-0.111l0.036,-0.11l0.036,-0.111l0.037,-0.11l0.037,-0.111l0.037,-0.11l0.037,-0.111l0.038,-0.11l0.039,-0.11l0.038,-0.111l0.039,-0.11l0.039,-0.11l0.04,-0.111l0.04,-0.11l0.04,-0.11l0.041,-0.111l0.041,-0.11l0.041,-0.11l0.042,-0.11l0.042,-0.111l0.043,-0.11l0.042,-0.11l0.043,-0.11l0.044,-0.11l0.044,-0.111l0.044,-0.11l0.044,-0.11l0.045,-0.11l0.045,-0.11l0.046,-0.11l0.046,-0.11l0.046,-0.11l0.047,-0.11l0.046,-0.11l0.048,-0.11l0.047,-0.11l0.048,-0.11l0.049,-0.11l0.048,-0.11l0.049,-0.11l0.05,-0.11l0.049,-0.11l0.05,-0.11l0.051,-0.11l0.051,-0.11l0.051,-0.109l0.051,-0.11l0.052,-0.11l0.052,-0.11l0.053,-0.11l0.052,-0.109l0.054,-0.11l0.053,-0.11l0.054,-0.109l0.054,-0.11l0.055,-0.11l0.055,-0.11l0.055,-0.109l0.056,-0.11l0.056,-0.109l0.056,-0.11l0.057,-0.11l0.057,-0.109l0.057,-0.11l0.058,-0.109l0.058,-0.11l0.059,-0.109l0.058,-0.11l0.06,-0.109l0.059,-0.11l0.06,-0.109l0.06,-0.11l0.061,-0.109l0.061,-0.109l0.061,-0.11l0.062,-0.109l0.062,-0.109l0.062,-0.11l0.063,-0.109l0.063,-0.109l0.063,-0.11l0.064,-0.109l0.064,-0.109l0.064,-0.109l0.065,-0.11l0.065,-0.109l0.066,-0.109l0.066,-0.109l0.066,-0.109l0.066,-0.109l0.067,-0.109l0.068,-0.109l0.067,-0.11l0.068,-0.109l0.068,-0.109l0.069,-0.109l0.069,-0.109l0.07,-0.109l0.069,-0.109l0.07,-0.108l0.071,-0.109l0.071,-0.109l0.071,-0.109l0.071,-0.109l0.072,-0.109l0.072,-0.109l0.073,-0.109l0.073,-0.108l0.073,-0.109l0.074,-0.109l0.074,-0.109l0.074,-0.108l0.075,-0.109l0.075,-0.109l0.075,-0.108l0.076,-0.109l0.076,-0.109l0.077,-0.108l0.077,-0.109l0.077,-0.109l0.077,-0.108l0.078,-0.109l0.079,-0.108l0.078,-0.109l0.079,-0.108l0.08,-0.109l0.079,-0.108l0.08,-0.109l0.081,-0.108l0.08,-0.108l0.082,-0.109l0.081,-0.108l0.082,-0.109l0.082,-0.108l0.083,-0.108l0.083,-0.108l0.083,-0.109l0.083,-0.108l0.084,-0.108l0.085,-0.108l0.084,-0.109l0.086,-0.108l0.085,-0.108l0.086,-0.108l0.086,-0.108l0.086,-0.108l0.087,-0.108l0.087,-0.108l0.088,-0.108l0.088,-0.108l0.088,-0.108l0.089,-0.108l0.089,-0.108l0.089,-0.108l0.09,-0.108l0.09,-0.108l0.09,-0.108l0.091,-0.108l0.091,-0.108l0.092,-0.108l0.092,-0.107l0.092,-0.108l0.092,-0.108l0.093,-0.108l0.094,-0.108l0.093,-0.107l0.094,-0.108l0.095,-0.108l0.094,-0.107l0.095,-0.108l0.096,-0.108l0.096,-0.107l0.096,-0.108l0.096,-0.107l0.097,-0.108l0.098,-0.107l0.097,-0.108l0.098,-0.107l0.099,-0.108l0.098,-0.107l0.099,-0.108l0.1,-0.107l0.1,-0.107l0.1,-0.108l0.1,-0.107l0.101,-0.107l0.101,-0.108l0.102,-0.107l0.102,-0.107l0.102,-0.107l0.103,-0.108l0.103,-0.107l0.103,-0.107l0.104,-0.107l0.104,-0.107l0.105,-0.108l0.105,-0.107l0.105,-0.107l0.105,-0.107l0.106,-0.107l0.107,-0.107l0.106,-0.107l0.107,-0.107l0.108,-0.107l0.107,-0.107l0.108,-0.107l0.109,-0.106l0.109,-0.107l0.109,-0.107l0.11,-0.107l0.109,-0.107l0.111,-0.107l0.11,-0.106l0.111,-0.107l0.112,-0.107l0.112,-0.107l0.112,-0.106l0.112,-0.107l0.113,-0.107l0.113,-0.106l0.114,-0.107l0.114,-0.106l0.114,-0.107l0.115,-0.107l0.115,-0.106l0.115,-0.107l0.116,-0.106l0.116,-0.107l0.116,-0.106l0.117,-0.106l0.117,-0.107l0.118,-0.106l0.118,-0.107l0.118,-0.106l0.119,-0.106l0.119,-0.107l0.119,-0.106l0.12,-0.106l0.12,-0.106l0.121,-0.107l0.121,-0.106l0.121,-0.106l0.121,-0.106l0.122,-0.106l0.123,-0.106l0.122,-0.106l0.123,-0.107l0.124,-0.106l0.124,-0.106l0.124,-0.106l0.124,-0.106l0.125,-0.106l0.125,-0.105l0.126,-0.106l0.126,-0.106l0.126,-0.106l0.127,-0.106l0.127,-0.106l0.128,-0.106l0.127,-0.106l0.129,-0.105l0.128,-0.106l0.129,-0.106l0.129,-0.106l0.13,-0.105l0.13,-0.106l0.131,-0.106l0.13,-0.105l0.131,-0.106l0.132,-0.105l0.132,-0.106l0.132,-0.105l0.133,-0.106l0.133,-0.105l0.133,-0.106l0.134,-0.105l0.134,-0.106l0.134,-0.105l0.135,-0.106l0.135,-0.105l0.136,-0.105l0.136,-0.106l0.136,-0.105l0.137,-0.105l0.137,-0.106l0.137,-0.105l0.138,-0.105l0.138,-0.105l0.138,-0.105l0.139,-0.106l0.14,-0.105l0.139,-0.105l0.14,-0.105l0.14,-0.105l0.141,-0.105l0.141,-0.105l0.142,-0.105l0.142,-0.105l0.142,-0.105l0.142,-0.105l0.143,-0.105l0.144,-0.105l0.143,-0.105l0.144,-0.105l0.145,-0.104l0.145,-0.105l0.145,-0.105l0.145,-0.105l0.146,-0.105l0.147,-0.104l0.146,-0.105l0.147,-0.105l0.148,-0.104l0.147,-0.105l0.149,-0.105l0.148,-0.104l0.149,-0.105l0.149,-0.104l0.15,-0.105l0.15,-0.105l0.15,-0.104l0.151,-0.104l0.151,-0.105l0.152,-0.104l0.151,-0.105l0.153,-0.104l0.152,-0.105l0.153,-0.104l0.154,-0.104l0.153,-0.104l0.154,-0.105l0.155,-0.104l0.155,-0.104l0.155,-0.104l0.156,-0.105l0.156,-0.104l0.156,-0.104l0.157,-0.104l0.157,-0.104l0.157,-0.104l0.158,-0.104l0.158,-0.104l0.159,-0.104l0.159,-0.104l0.159,-0.104l0.16,-0.104l0.16,-0.104l0.16,-0.104l0.161,-0.104l0.161,-0.104l0.162,-0.104l0.162,-0.104l0.162,-0.103l0.163,-0.104l0.163,-0.104l0.163,-0.104l0.164,-0.103l0.164,-0.104l0.165,-0.104l0.165,-0.103l0.165,-0.104l0.166,-0.104l0.166,-0.103l0.167,-0.104l0.166,-0.103l0.168,-0.104l0.167,-0.103l0.168,-0.104l0.168,-0.103l0.169,-0.104l0.169,-0.103l0.17,-0.104l0.17,-0.103l0.17,-0.103l0.17,-0.104l0.171,-0.103l0.172,-0.103l0.171,-0.103l0.173,-0.104l0.172,-0.103l0.173,-0.103l0.173,-0.103l0.174,-0.103l0.174,-0.103l0.174,-0.104l0.175,-0.103l0.175,-0.103l0.176,-0.103l0.175,-0.103l0.177,-0.103l0.176,-0.103l0.177,-0.103l0.178,-0.103l0.177,-0.103l0.179,-0.102l0.178,-0.103l0.179,-0.103l0.179,-0.103l0.18,-0.103l0.18,-0.102l0.18,-0.103l0.181,-0.103l0.181,-0.103l0.182,-0.102l0.182,-0.103l0.182,-0.103l0.183,-0.102l0.183,-0.103l0.184,-0.102l0.183,-0.103l0.185,-0.103l0.184,-0.102l0.185,-0.103l0.186,-0.102l0.185,-0.102l0.186,-0.103l0.187,-0.102l0.187,-0.103l0.187,-0.102l0.188,-0.102l0.188,-0.103l0.188,-0.102l0.189,-0.102l0.189,-0.102l0.19,-0.103l0.19,-0.102l0.19,-0.102l0.191,-0.102l0.191,-0.102l0.191,-0.102l0.192,-0.103l0.192,-0.102l0.193,-0.102l0.193,-0.102l0.193,-0.102l0.194,-0.102l0.194,-0.102l0.194,-0.102l0.195,-0.101l0.196,-0.102l0.195,-0.102l0.196,-0.102l0.196,-0.102l0.002,-0.001l0.568,-0.149l0.566,0.077Z"/><path d="M72.126,1.803l0.003,0.001l0.195,0.102l0.196,0.102l0.196,0.102l0.195,0.102l0.195,0.101l0.195,0.102l0.194,0.102l0.194,0.102l0.193,0.102l0.193,0.102l0.193,0.102l0.192,0.102l0.192,0.103l0.191,0.102l0.191,0.102l0.191,0.102l0.19,0.102l0.19,0.102l0.19,0.103l0.189,0.102l0.189,0.102l0.188,0.102l0.188,0.103l0.188,0.102l0.187,0.102l0.187,0.103l0.186,0.102l0.186,0.103l0.186,0.102l0.186,0.102l0.185,0.103l0.184,0.102l0.184,0.103l0.184,0.103l0.184,0.102l0.183,0.103l0.182,0.102l0.183,0.103l0.182,0.103l0.181,0.102l0.181,0.103l0.181,0.103l0.181,0.103l0.18,0.102l0.179,0.103l0.18,0.103l0.179,0.103l0.178,0.103l0.178,0.102l0.178,0.103l0.177,0.103l0.177,0.103l0.177,0.103l0.176,0.103l0.176,0.103l0.176,0.103l0.175,0.103l0.175,0.103l0.174,0.104l0.174,0.103l0.174,0.103l0.173,0.103l0.173,0.103l0.172,0.103l0.172,0.104l0.172,0.103l0.171,0.103l0.171,0.103l0.171,0.104l0.17,0.103l0.17,0.103l0.169,0.104l0.17,0.103l0.168,0.104l0.169,0.103l0.168,0.104l0.167,0.103l0.167,0.104l0.167,0.103l0.167,0.104l0.166,0.103l0.165,0.104l0.166,0.104l0.165,0.103l0.164,0.104l0.164,0.104l0.164,0.103l0.164,0.104l0.163,0.104l0.163,0.104l0.162,0.103l0.162,0.104l0.161,0.104l0.162,0.104l0.16,0.104l0.161,0.104l0.16,0.104l0.16,0.104l0.159,0.104l0.159,0.104l0.159,0.104l0.158,0.104l0.158,0.104l0.157,0.104l0.157,0.104l0.157,0.104l0.156,0.104l0.156,0.104l0.156,0.105l0.155,0.104l0.155,0.104l0.154,0.104l0.154,0.105l0.154,0.104l0.153,0.104l0.153,0.104l0.153,0.105l0.152,0.104l0.152,0.105l0.152,0.104l0.151,0.105l0.151,0.104l0.15,0.104l0.15,0.105l0.15,0.105l0.149,0.104l0.149,0.105l0.148,0.104l0.148,0.105l0.148,0.105l0.147,0.104l0.148,0.105l0.146,0.105l0.146,0.104l0.146,0.105l0.146,0.105l0.145,0.105l0.145,0.105l0.144,0.104l0.144,0.105l0.144,0.105l0.143,0.105l0.143,0.105l0.143,0.105l0.142,0.105l0.142,0.105l0.141,0.105l0.141,0.105l0.141,0.105l0.141,0.105l0.14,0.105l0.139,0.105l0.139,0.105l0.139,0.106l0.139,0.105l0.138,0.105l0.138,0.105l0.137,0.105l0.137,0.106l0.137,0.105l0.136,0.105l0.136,0.106l0.136,0.105l0.135,0.105l0.135,0.106l0.134,0.105l0.134,0.106l0.134,0.105l0.133,0.106l0.133,0.105l0.133,0.106l0.132,0.105l0.132,0.106l0.131,0.105l0.131,0.106l0.131,0.105l0.131,0.106l0.13,0.106l0.129,0.105l0.13,0.106l0.128,0.106l0.129,0.106l0.128,0.105l0.128,0.106l0.127,0.106l0.128,0.106l0.126,0.106l0.127,0.106l0.126,0.106l0.125,0.106l0.126,0.105l0.124,0.106l0.125,0.106l0.124,0.106l0.124,0.106l0.123,0.106l0.123,0.107l0.123,0.106l0.122,0.106l0.122,0.106l0.122,0.106l0.121,0.106l0.121,0.106l0.12,0.107l0.121,0.106l0.119,0.106l0.12,0.106l0.119,0.107l0.118,0.106l0.119,0.106l0.118,0.107l0.117,0.106l0.118,0.107l0.116,0.106l0.117,0.106l0.116,0.107l0.116,0.106l0.115,0.107l0.115,0.106l0.115,0.107l0.114,0.107l0.114,0.106l0.114,0.107l0.113,0.106l0.113,0.107l0.112,0.107l0.112,0.106l0.112,0.107l0.111,0.107l0.111,0.107l0.111,0.106l0.11,0.107l0.11,0.107l0.11,0.107l0.109,0.107l0.109,0.107l0.108,0.106l0.108,0.107l0.108,0.107l0.107,0.107l0.107,0.107l0.107,0.107l0.106,0.107l0.106,0.107l0.106,0.107l0.105,0.107l0.105,0.107l0.105,0.108l0.104,0.107l0.103,0.107l0.104,0.107l0.103,0.107l0.103,0.108l0.102,0.107l0.102,0.107l0.101,0.107l0.102,0.108l0.1,0.107l0.101,0.107l0.1,0.108l0.1,0.107l0.099,0.107l0.099,0.108l0.099,0.107l0.098,0.108l0.098,0.107l0.098,0.108l0.097,0.107l0.097,0.108l0.097,0.107l0.096,0.108l0.096,0.107l0.095,0.108l0.095,0.108l0.095,0.107l0.094,0.108l0.094,0.108l0.094,0.107l0.093,0.108l0.093,0.108l0.093,0.108l0.092,0.108l0.092,0.107l0.092,0.108l0.091,0.108l0.09,0.108l0.091,0.108l0.09,0.108l0.09,0.108l0.089,0.108l0.089,0.108l0.089,0.108l0.088,0.108l0.088,0.108l0.087,0.108l0.088,0.108l0.086,0.108l0.087,0.108l0.086,0.108l0.086,0.108l0.085,0.108l0.085,0.108l0.085,0.109l0.084,0.108l0.084,0.108l0.084,0.108l0.083,0.109l0.083,0.108l0.083,0.108l0.082,0.108l0.082,0.109l0.081,0.108l0.081,0.109l0.081,0.108l0.08,0.108l0.08,0.109l0.08,0.108l0.079,0.109l0.079,0.108l0.079,0.109l0.078,0.108l0.078,0.109l0.078,0.108l0.077,0.109l0.077,0.109l0.076,0.108l0.076,0.109l0.076,0.109l0.076,0.108l0.075,0.109l0.074,0.109l0.075,0.108l0.074,0.109l0.073,0.109l0.074,0.109l0.073,0.108l0.072,0.109l0.072,0.109l0.072,0.109l0.072,0.109l0.071,0.109l0.071,0.109l0.07,0.109l0.07,0.108l0.07,0.109l0.07,0.109l0.069,0.109l0.068,0.109l0.069,0.109l0.068,0.109l0.067,0.11l0.067,0.109l0.067,0.109l0.067,0.109l0.066,0.109l0.066,0.109l0.065,0.109l0.066,0.109l0.064,0.11l0.065,0.109l0.064,0.109l0.064,0.109l0.063,0.11l0.063,0.109l0.063,0.109l0.062,0.11l0.062,0.109l0.062,0.109l0.061,0.11l0.061,0.109l0.06,0.109l0.061,0.11l0.06,0.109l0.059,0.11l0.059,0.109l0.059,0.11l0.059,0.109l0.058,0.11l0.057,0.109l0.058,0.11l0.057,0.109l0.057,0.11l0.056,0.11l0.056,0.109l0.056,0.11l0.055,0.109l0.055,0.11l0.054,0.11l0.055,0.11l0.054,0.109l0.053,0.11l0.053,0.11l0.053,0.109l0.053,0.11l0.052,0.11l0.052,0.11l0.051,0.11l0.051,0.109l0.051,0.11l0.05,0.11l0.05,0.11l0.05,0.11l0.049,0.11l0.049,0.11l0.049,0.11l0.048,0.11l0.048,0.11l0.048,0.11l0.047,0.11l0.047,0.11l0.047,0.11l0.046,0.11l0.046,0.11l0.045,0.11l0.046,0.11l0.044,0.11l0.045,0.11l0.044,0.11l0.044,0.111l0.043,0.11l0.043,0.11l0.043,0.11l0.043,0.11l0.042,0.111l0.041,0.11l0.042,0.11l0.041,0.11l0.04,0.111l0.041,0.11l0.04,0.11l0.039,0.111l0.04,0.11l0.039,0.11l0.038,0.111l0.038,0.11l0.038,0.11l0.038,0.111l0.037,0.11l0.037,0.111l0.037,0.11l0.036,0.111l0.036,0.11l0.035,0.111l0.035,0.11l0.035,0.111l0.034,0.11l0.035,0.111l0.033,0.11l0.034,0.111l0.033,0.111l0.033,0.11l0.032,0.111l0.032,0.11l0.032,0.111l0.031,0.111l0.031,0.11l0.031,0.111l0.03,0.111l0.03,0.11l0.03,0.111l0.029,0.111l0.029,0.111l0.029,0.11l0.028,0.111l0.028,0.111l0.028,0.111l0.027,0.111l0.027,0.11l0.027,0.111l0.026,0.111l0.026,0.111l0.025,0.111l0.025,0.111l0.025,0.111l0.025,0.111l0.024,0.111l0.024,0.111l0.023,0.111l0.024,0.111l0.022,0.11l0.023,0.111l0.022,0.112l0.022,0.111l0.021,0.111l0.022,0.111l0.02,0.111l0.021,0.111l0.02,0.111l0.02,0.111l0.019,0.111l0.019,0.111l0.019,0.111l0.019,0.111l0.018,0.112l0.017,0.111l0.018,0.111l0.017,0.111l0.017,0.111l0.016,0.112l0.016,0.111l0.016,0.111l0.015,0.111l0.015,0.112l0.015,0.111l0.014,0.111l0.014,0.112l0.014,0.111l0.014,0.111l0.013,0.112l0.012,0.111l0.013,0.111l0.012,0.112l-0.017,-0.111l-0.016,-0.111l-0.017,-0.111l-0.017,-0.11l-0.018,-0.111l-0.018,-0.111l-0.018,-0.11l-0.019,-0.111l-0.019,-0.11l-0.019,-0.111l-0.02,-0.11l-0.019,-0.111l-0.021,-0.11l-0.02,-0.111l-0.021,-0.11l-0.022,-0.11l-0.021,-0.11l-0.022,-0.111l-0.022,-0.11l-0.023,-0.11l-0.023,-0.11l-0.023,-0.11l-0.024,-0.11l-0.024,-0.11l-0.024,-0.11l-0.025,-0.11l-0.025,-0.11l-0.025,-0.11l-0.025,-0.109l-0.026,-0.11l-0.027,-0.11l-0.026,-0.11l-0.027,-0.109l-0.028,-0.11l-0.027,-0.109l-0.028,-0.11l-0.028,-0.109l-0.029,-0.11l-0.029,-0.109l-0.029,-0.11l-0.03,-0.109l-0.03,-0.109l-0.03,-0.109l-0.031,-0.11l-0.031,-0.109l-0.031,-0.109l-0.032,-0.109l-0.032,-0.109l-0.032,-0.109l-0.033,-0.109l-0.033,-0.109l-0.033,-0.109l-0.034,-0.109l-0.034,-0.109l-0.034,-0.109l-0.035,-0.108l-0.035,-0.109l-0.035,-0.109l-0.036,-0.109l-0.036,-0.108l-0.036,-0.109l-0.037,-0.108l-0.037,-0.109l-0.037,-0.108l-0.038,-0.109l-0.038,-0.108l-0.038,-0.109l-0.039,-0.108l-0.039,-0.108l-0.039,-0.108l-0.04,-0.109l-0.04,-0.108l-0.041,-0.108l-0.04,-0.108l-0.041,-0.108l-0.042,-0.108l-0.042,-0.108l-0.042,-0.108l-0.042,-0.108l-0.043,-0.108l-0.043,-0.108l-0.043,-0.108l-0.044,-0.107l-0.044,-0.108l-0.045,-0.108l-0.045,-0.108l-0.045,-0.107l-0.045,-0.108l-0.046,-0.107l-0.046,-0.108l-0.047,-0.107l-0.046,-0.108l-0.048,-0.107l-0.047,-0.108l-0.048,-0.107l-0.048,-0.107l-0.049,-0.108l-0.049,-0.107l-0.049,-0.107l-0.049,-0.107l-0.05,-0.107l-0.05,-0.107l-0.051,-0.107l-0.051,-0.107l-0.051,-0.107l-0.052,-0.107l-0.052,-0.107l-0.052,-0.107l-0.052,-0.107l-0.053,-0.107l-0.054,-0.107l-0.053,-0.106l-0.054,-0.107l-0.054,-0.107l-0.055,-0.106l-0.055,-0.107l-0.055,-0.106l-0.056,-0.107l-0.056,-0.106l-0.056,-0.107l-0.057,-0.106l-0.057,-0.107l-0.058,-0.106l-0.057,-0.106l-0.058,-0.106l-0.059,-0.107l-0.058,-0.106l-0.059,-0.106l-0.06,-0.106l-0.06,-0.106l-0.06,-0.106l-0.06,-0.106l-0.061,-0.106l-0.061,-0.106l-0.062,-0.106l-0.061,-0.106l-0.063,-0.106l-0.062,-0.106l-0.063,-0.105l-0.063,-0.106l-0.064,-0.106l-0.063,-0.105l-0.065,-0.106l-0.064,-0.106l-0.065,-0.105l-0.065,-0.106l-0.066,-0.105l-0.066,-0.106l-0.066,-0.105l-0.067,-0.106l-0.067,-0.105l-0.067,-0.105l-0.068,-0.105l-0.068,-0.106l-0.068,-0.105l-0.069,-0.105l-0.069,-0.105l-0.069,-0.105l-0.07,-0.105l-0.07,-0.105l-0.07,-0.105l-0.071,-0.105l-0.071,-0.105l-0.072,-0.105l-0.071,-0.105l-0.073,-0.105l-0.072,-0.105l-0.073,-0.104l-0.073,-0.105l-0.073,-0.105l-0.074,-0.104l-0.075,-0.105l-0.074,-0.105l-0.075,-0.104l-0.075,-0.105l-0.076,-0.104l-0.076,-0.105l-0.076,-0.104l-0.077,-0.104l-0.077,-0.105l-0.077,-0.104l-0.078,-0.104l-0.078,-0.105l-0.078,-0.104l-0.079,-0.104l-0.079,-0.104l-0.079,-0.104l-0.08,-0.104l-0.08,-0.104l-0.08,-0.104l-0.081,-0.104l-0.081,-0.104l-0.082,-0.104l-0.082,-0.104l-0.082,-0.104l-0.082,-0.104l-0.083,-0.103l-0.084,-0.104l-0.083,-0.104l-0.084,-0.103l-0.084,-0.104l-0.085,-0.104l-0.085,-0.103l-0.085,-0.104l-0.086,-0.103l-0.086,-0.104l-0.086,-0.103l-0.087,-0.103l-0.087,-0.104l-0.088,-0.103l-0.087,-0.103l-0.089,-0.104l-0.088,-0.103l-0.089,-0.103l-0.089,-0.103l-0.09,-0.103l-0.089,-0.103l-0.091,-0.103l-0.09,-0.103l-0.091,-0.103l-0.091,-0.103l-0.092,-0.103l-0.092,-0.103l-0.092,-0.103l-0.093,-0.103l-0.093,-0.103l-0.093,-0.102l-0.094,-0.103l-0.094,-0.103l-0.095,-0.102l-0.094,-0.103l-0.096,-0.103l-0.095,-0.102l-0.096,-0.103l-0.096,-0.102l-0.097,-0.103l-0.097,-0.102l-0.097,-0.102l-0.097,-0.103l-0.098,-0.102l-0.099,-0.102l-0.098,-0.102l-0.099,-0.103l-0.1,-0.102l-0.1,-0.102l-0.1,-0.102l-0.1,-0.102l-0.101,-0.102l-0.101,-0.102l-0.102,-0.102l-0.101,-0.102l-0.103,-0.102l-0.102,-0.102l-0.103,-0.102l-0.103,-0.102l-0.104,-0.101l-0.104,-0.102l-0.104,-0.102l-0.105,-0.101l-0.105,-0.102l-0.105,-0.102l-0.106,-0.101l-0.106,-0.102l-0.107,-0.101l-0.107,-0.102l-0.107,-0.101l-0.107,-0.102l-0.108,-0.101l-0.108,-0.101l-0.109,-0.102l-0.109,-0.101l-0.109,-0.101l-0.11,-0.101l-0.11,-0.102l-0.11,-0.101l-0.111,-0.101l-0.111,-0.101l-0.112,-0.101l-0.111,-0.101l-0.113,-0.101l-0.112,-0.101l-0.113,-0.101l-0.113,-0.101l-0.114,-0.1l-0.114,-0.101l-0.114,-0.101l-0.115,-0.101l-0.115,-0.1l-0.115,-0.101l-0.116,-0.101l-0.116,-0.1l-0.116,-0.101l-0.117,-0.101l-0.117,-0.1l-0.118,-0.101l-0.118,-0.1l-0.118,-0.1l-0.119,-0.101l-0.119,-0.1l-0.119,-0.1l-0.12,-0.101l-0.12,-0.1l-0.12,-0.1l-0.121,-0.1l-0.121,-0.1l-0.121,-0.101l-0.122,-0.1l-0.123,-0.1l-0.122,-0.1l-0.123,-0.1l-0.123,-0.1l-0.124,-0.1l-0.124,-0.099l-0.124,-0.1l-0.125,-0.1l-0.125,-0.1l-0.126,-0.1l-0.125,-0.099l-0.127,-0.1l-0.126,-0.1l-0.127,-0.099l-0.127,-0.1l-0.128,-0.099l-0.128,-0.1l-0.128,-0.099l-0.129,-0.1l-0.129,-0.099l-0.129,-0.1l-0.13,-0.099l-0.13,-0.099l-0.131,-0.099l-0.131,-0.1l-0.131,-0.099l-0.132,-0.099l-0.132,-0.099l-0.132,-0.099l-0.133,-0.099l-0.133,-0.099l-0.133,-0.1l-0.134,-0.098l-0.134,-0.099l-0.134,-0.099l-0.135,-0.099l-0.136,-0.099l-0.135,-0.099l-0.136,-0.099l-0.136,-0.098l-0.137,-0.099l-0.137,-0.099l-0.138,-0.098l-0.137,-0.099l-0.139,-0.099l-0.138,-0.098l-0.139,-0.099l-0.139,-0.098l-0.14,-0.099l-0.14,-0.098l-0.14,-0.098l-0.141,-0.099l-0.141,-0.098l-0.141,-0.098l-0.142,-0.099l-0.142,-0.098l-0.143,-0.098l-0.143,-0.098l-0.143,-0.098l-0.144,-0.098l-0.144,-0.098l-0.144,-0.098l-0.145,-0.098l-0.145,-0.098l-0.145,-0.098l-0.146,-0.098l-0.146,-0.098l-0.147,-0.098l-0.147,-0.097l-0.147,-0.098l-0.148,-0.098l-0.148,-0.098l-0.148,-0.097l-0.149,-0.098l-0.149,-0.097l-0.15,-0.098l-0.149,-0.097l-0.151,-0.098l-0.15,-0.097l-0.151,-0.098l-0.152,-0.097l-0.151,-0.098l-0.152,-0.097l-0.153,-0.097l-0.153,-0.097l-0.153,-0.098l-0.153,-0.097l-0.154,-0.097l-0.155,-0.097l-0.154,-0.097l-0.155,-0.097l-0.156,-0.097l-0.155,-0.097l-0.157,-0.097l-0.156,-0.097l-0.157,-0.097l-0.157,-0.097l-0.158,-0.096l-0.158,-0.097l-0.158,-0.097l-0.159,-0.097l-0.159,-0.096l-0.159,-0.097l-0.16,-0.096l-0.16,-0.097l-0.161,-0.097l-0.161,-0.096l-0.161,-0.097l-0.162,-0.096l-0.162,-0.096l-0.163,-0.097l-0.162,-0.096l-0.164,-0.096l-0.163,-0.097l-0.164,-0.096l-0.164,-0.096l-0.165,-0.096l-0.165,-0.096l-0.165,-0.096l-0.166,-0.096l-0.166,-0.097l-0.167,-0.095l-0.167,-0.096l-0.167,-0.096l-0.168,-0.096l-0.168,-0.096l-0.168,-0.096l-0.169,-0.096l-0.169,-0.095l-0.169,-0.096l-0.17,-0.096l-0.171,-0.096l-0.17,-0.095l-0.171,-0.096l-0.172,-0.095l-0.171,-0.096l-0.172,-0.095l-0.173,-0.096l-0.173,-0.095l-0.173,-0.096l-0.174,-0.095l-0.174,-0.095l-0.174,-0.095l-0.175,-0.096l-0.175,-0.095l-0.175,-0.095l-0.176,-0.095l-0.177,-0.095l-0.176,-0.095l-0.177,-0.095l-0.178,-0.095l-0.177,-0.095l-0.178,-0.095l-0.179,-0.095l-0.179,-0.095l-0.179,-0.095l-0.18,-0.095l-0.18,-0.094l-0.18,-0.095l-0.181,-0.095l-0.181,-0.095l-0.181,-0.094l-0.182,-0.095l-0.182,-0.094l-0.183,-0.095l-0.183,-0.094l-0.183,-0.095l-0.184,-0.094l-0.184,-0.095l-0.185,-0.094l-0.185,-0.094l-0.185,-0.095l-0.186,-0.094l-0.186,-0.094l-0.186,-0.094l-0.187,-0.094l-0.187,-0.094l-0.188,-0.095l-0.188,-0.094l-0.188,-0.094l-0.188,-0.094l-0.19,-0.094l-0.189,-0.093l-0.19,-0.094l-0.19,-0.094l-0.191,-0.094l-0.19,-0.094l-0.192,-0.093l-0.191,-0.094l-0.193,-0.094l-0.192,-0.093l-0.193,-0.094l-0.193,-0.094l-0.194,-0.093l-0.194,-0.094l-0.194,-0.093l-0.195,-0.093l-0.195,-0.094l-0.195,-0.093l-0.196,-0.094l-0.196,-0.093l-0.197,-0.093l-0.197,-0.093l-0.197,-0.093l-0.199,-0.094l-0.002,-0.001l-0.463,-0.36l-0.282,-0.497l-0.076,-0.567l0.15,-0.569l0.001,-0.002l0.001,-0.002l0.361,-0.465l0.497,-0.284l0.566,-0.077l0.567,0.149Z"/></g><text x="45.252px" y="55.135px" style="font-family:'STSong';font-weight:300;font-size:10.845px;">7 EYVAN</text></svg>